<svg xmlns="http://www.w3.org/2000/svg" viewBox="0 0 584.25 231.99"><defs><style>.cls-1{fill:none;stroke:#000;stroke-miterlimit:10;}</style></defs><title>strata_text</title><g id="Layer_2" data-name="Layer 2"><g id="morph_composit"><g id="text"><path d="M6.59,28.75V15.25l1.24-.44,0,13.37Z"/><path d="M23.6,21.08l.27-5.8c-2.74,1-4.11,1.5-6.8,2.62l-.2,5.94-1.19.56L16,11.86l1.24-.45-.18,5.37c2.7-1.09,4.07-1.61,6.81-2.59l.24-5.24,1.24-.44-.57,12.15Z"/><path d="M37.65,17.7c-.6-1.55-.9-2.34-1.51-3.94A30.09,30.09,0,0,0,30.56,15c-.68,1.79-1,2.68-1.72,4.44l-1.27.36c2.2-5.51,3.29-8.33,5.44-14.06a10.13,10.13,0,0,1,1.3-.34c1.83,4.67,2.78,7.28,4.61,11.87ZM33.57,7.05c-1,2.67-1.5,4-2.52,6.7a25.45,25.45,0,0,1,4.69-1.05C34.87,10.41,34.43,9.24,33.57,7.05Z"/><path d="M45.31,16.92,44.13,17c-1.81-4.53-2.72-6.79-4.56-11.61l1.31-.27c1.59,4.26,2.37,6.28,3.93,10.34,1.94-4.17,2.92-6.17,4.87-10.23h1.37C48.76,9.87,47.6,12.15,45.31,16.92Z"/><path d="M53.36,16.78l.58-11.56h6.87l-.05,1H55.2l-.2,4H59.4l.14,1H55l-.22,4.49h5.75l-.05,1Z"/><path d="M71,16.93a8.14,8.14,0,0,1-3.47-.69l.24-1.1a7.1,7.1,0,0,0,3.32.9c1.54,0,2.72-.56,2.75-1.62s-.61-1.42-2.56-2.34C68.81,10.93,68,10,68,8.5s1.66-2.32,3.76-1.76A9.17,9.17,0,0,1,74.57,8l-.21.88A7.64,7.64,0,0,0,71.7,7.61c-1.5-.36-2.36.17-2.39,1.09s.56,1.57,2.52,2.53c2.36,1.16,3.34,1.89,3.31,3.22C75.1,16,73.3,16.93,71,16.93Z"/><path d="M78.25,16.84l.09-8.26L85,10.35V11c-2.15-.56-3.22-.83-5.38-1.35v2.72c1.72.28,2.58.44,4.3.81l.19.69c-1.79-.37-2.69-.53-4.49-.78l0,3.09a40,40,0,0,1,5.7.69v.64A36.31,36.31,0,0,0,78.25,16.84Z"/><path d="M88.18,18,88,11.14a30.34,30.34,0,0,0,6.77,1l0,.63A33.29,33.29,0,0,1,89.3,12l.07,2.31c1.72.32,2.59.45,4.33.65l.21.64c-1.82-.22-2.72-.36-4.52-.69l.08,2.63c2.27.39,3.4.57,5.68.92l0,.63Z"/><path d="M106.9,21.05a64,64,0,0,0-7.75-7.7l.14,6.45-1.23-.2-.18-7.47h1.24a61.37,61.37,0,0,1,7.53,7.24l-.07-7.22h1.24l.08,9Z"/><path d="M120.88,13.14c0,3.83,0,5.75,0,9.58l-1.3-.06V13.14l-4.27,0v-.91H125l.19,1Z"/><path d="M136.52,22.8l0-5.07h-7.32V22.8h-1.32V12.2h1.32v4.58h7.31l0-4.58h1.32l0,10.6Z"/><path d="M141.74,22.8l-.05-10.68,6.85-.51v1L143,13l0,3.69,4.38-.19.2,1-4.58.17,0,4.19,5.75,0v1Z"/><path d="M157.66,12l.05,4.24,4.23-.18.21,1.09-4.43.15.06,5.48h-1.32L156.33,11l6.58-.49,0,1.1Z"/><path d="M166.1,22.77l-.18-12.45,1.31-.1.19,12.55Z"/><path d="M180.4,22.36c-3.15-4.1-4.73-6.33-7.87-10.49l.18,10.89h-1.24l-.21-12.84,1.24-.09c3,4,4.58,6.15,7.63,10.14l-.2-10.7,1.24-.09.24,13.09Z"/><path d="M185.29,21.86l-.24-13,6.85-.52,0,1.15-5.53.43.08,4.43,4.38-.38.21,1.14-4.57.41.09,5,5.73-.57,0,1.15Z"/><path d="M198.16,20.7a7.13,7.13,0,0,1-3.5-.44l.17-1.31a6.18,6.18,0,0,0,3.37.63A2.62,2.62,0,0,0,200.85,17c0-1.24-.68-1.8-2.7-2.46-2.53-.84-3.46-1.58-3.5-3.38s1.54-3.32,3.7-3.48a5.77,5.77,0,0,1,2.9.44l-.17,1.27a4.85,4.85,0,0,0-2.77-.59C196.78,9,195.95,9.91,196,11s.66,1.67,2.69,2.35c2.45.82,3.46,1.63,3.5,3.47C202.2,19,200.46,20.46,198.16,20.7Z"/><path d="M209.38,8.6l.22,10.79-1.29.13-.22-11c-1.7,0-2.56,0-4.26,0l0-1.12a54.52,54.52,0,0,1,9.65.46l.21,1C212,8.79,211.1,8.69,209.38,8.6Z"/><path d="M234.07,18c-.46-2.72-.7-4.09-1.16-6.86-1.69,2.59-2.54,4-4.25,6.94l-1,0c-1.94-2.92-2.91-4.47-4.84-7.84-.24,3.18-.36,4.79-.6,8.07l-1.22.08c.3-3.93.45-5.85.75-9.64l1.61.17c1.91,3.43,2.86,5,4.78,8,1.7-3,2.54-4.41,4.23-7l1.59.17c.56,3.21.84,4.8,1.4,7.94Z"/><path d="M239,18.18l-.37-7.56,1.31.14.38,7.49Z"/><path d="M253.22,19.62c-3.15-3-4.74-4.33-7.93-7.13l.32,6.18-1.23-.11L244,11.2l1.23.13c3.09,2.72,4.64,4,7.7,6.88l-.28-6.07,1.23.14.34,7.5Z"/><path d="M261.5,21.14c-1.38-.3-2.07-.44-3.46-.7l-.3-7.74,3.56.4c4.36.48,6.83,2.55,6.86,5.19S265.64,22,261.5,21.14Zm-.15-7.32-2.27-.27.23,6.43,2.24.45c3.27.67,5.32,0,5.29-2.37S264.61,14.22,261.35,13.83Z"/><path d="M274.1,24.31a11.75,11.75,0,0,1-3.4-1.42l.18-.89a10.19,10.19,0,0,0,3.28,1.47c1.51.36,2.65,0,2.65-1.18s-.62-1.62-2.59-2.63c-2.47-1.26-3.38-2-3.39-3.29s1.58-2.14,3.74-1.9a7.52,7.52,0,0,1,2.88.84l-.2,1a6.4,6.4,0,0,0-2.74-1c-1.53-.19-2.38.36-2.38,1.18s.63,1.35,2.62,2.35c2.4,1.2,3.37,2.14,3.35,3.63C278.09,24.23,276.35,24.87,274.1,24.31Z"/><path d="M290.89,28.57a7.22,7.22,0,0,1-5.62-7.2c.08-3.42,2.56-5.53,6-5.15s5.8,3.27,5.65,7.12S294.35,29.41,290.89,28.57Zm.37-11.28c-2.74-.33-4.59,1.42-4.66,4.29A5.71,5.71,0,0,0,291,27.51c2.7.62,4.56-1.18,4.67-4.33S294,17.62,291.27,17.29Z"/><path d="M301.75,18.57l-.19,4.72c1.68.18,2.52.26,4.2.4l.14,1.26c-1.76-.16-2.63-.26-4.39-.47l-.24,6.09-1.3-.25.51-13c2.63.16,3.95.2,6.58.21L307,18.77C304.91,18.73,303.86,18.69,301.75,18.57Z"/><path d="M326.74,34.18c-.13-6.24-.2-9.32-.33-15.42-2,6.3-3,9.27-5.06,14.82l-1-.13c-1.61-5.94-2.41-8.71-4-14-.55,5.33-.83,8-1.38,13.18l-1.21-.16c.66-6,1-9.05,1.66-15.22l1.61-.12c1.58,5.33,2.37,8.13,4,14.14,2-5.66,3-8.67,5-15.09l1.59-.18c.17,7.23.26,10.9.43,18.33Z"/><path d="M336.14,26.86l-.25,8.44-1.31-.14.25-8.29c-1.71-4.64-2.56-6.85-4.27-11l1.3-.53c1.48,3.72,2.22,5.68,3.71,9.76,1.68-4,2.53-6.11,4.21-10.46l1.42-.16C339.18,19.65,338.17,22.14,336.14,26.86Z"/><path d="M353.62,36.8c-3.89-.08-6.06-5-5.89-11.83s2.66-12,6.32-12.24a4.22,4.22,0,0,1,3.83,1.77l-.28,2.43A4.09,4.09,0,0,0,354,14.81c-2.93.21-4.76,4.25-4.91,10.09s1.52,9.75,4.61,9.78a3.9,3.9,0,0,0,3-1.45l.15-7-3.16.08-.14-2.08,4.64-.15L358,34.45A5.73,5.73,0,0,1,353.62,36.8Z"/><path d="M361.66,36.35l.5-23.67c2.74-.11,4.11-.15,6.85-.18l0,2.12c-2.22,0-3.32.06-5.54.14l-.17,8.1,4.38-.14.15,2.12-4.57.15-.19,9.2c2.3-.06,3.44-.11,5.74-.22l0,2.12C365.89,36.24,364.48,36.3,361.66,36.35Z"/><path d="M380.57,35.2c-2.91-7.33-4.37-11.18-7.28-19l-.4,19.65-1.24.09.48-23.43h1.24c2.82,7.64,4.23,11.4,7.06,18.58l.38-18.39,1.24.05-.47,22.39Z"/><path d="M385.46,34.79l.46-21.85c2.74.18,4.1.3,6.84.52l0,1.87c-2.21-.14-3.32-.22-5.53-.35L387,22.38l4.38,0,.15,1.88-4.57,0-.18,8.41,5.73-.39,0,1.86Z"/><path d="M404.06,33l-1.34.52c-1.63-3.31-2.45-5-4.07-8.59L397,25l-.19,8.87-1.32.11.44-20.27,3.35.26c2.57.2,4.16,2.21,4.09,5.52-.06,3-1.42,4.64-3.24,5.22C401.67,28.16,402.47,29.83,404.06,33Zm-4.93-17.34-2-.13-.17,7.7h1.75c1.94,0,3.19-1.28,3.24-3.73S401,15.83,399.13,15.71Z"/><path d="M416,32.45c-.63-2.2-.94-3.32-1.57-5.6L408.7,27c-.7,2.37-1,3.57-1.75,6l-1.33.11c2.24-7.66,3.36-11.33,5.58-18.32l1.35.11c1.9,7.15,2.85,10.57,4.75,17.06ZM411.8,16.94c-1,3.32-1.55,5-2.59,8.47l4.84-.08C413.15,22.05,412.7,20.37,411.8,16.94Z"/><path d="M423.28,17.3l-.34,14.42-1.3.11L422,17.21l-4.26-.27,0-1.5,9.66.76.16,1.38Z"/><path d="M430,31.13l.35-14.7,1.31.1L431.36,31Z"/><path d="M440.71,30.5c-3.51.29-5.83-2.45-5.73-6.71s2.61-7,6.11-6.76,5.85,3.06,5.75,6.79A6.54,6.54,0,0,1,440.71,30.5ZM441,18.2c-2.76-.19-4.62,2.08-4.71,5.56s1.68,5.77,4.44,5.58,4.63-2.37,4.71-5.5S443.8,18.38,441,18.2Z"/><path d="M458.94,30c-3-3.88-4.49-5.89-7.46-10.07l-.24,9.92H450L450.28,18l1.24.1c2.88,4.08,4.33,6,7.23,9.84l.2-9.24,1.24.1L460,30.07Z"/><path d="M473.2,20.81,473,30.35l-1.3,0,.16-9.61-4.26-.32,0-1,9.66.78.18.93Z"/><path d="M487.75,30.77c-.67-1.3-1-2-1.67-3.28l-5.76-.24-1.66,3.22-1.34,0c2.14-4.07,3.2-6,5.31-9.88l1.35.11c2,4.08,3,6.06,5.06,9.91Zm-4.49-9c-1,1.82-1.47,2.74-2.45,4.61l4.85.22C484.68,24.71,484.21,23.74,483.25,21.79Z"/><path d="M500,31.43c-2.69-2.31-4-3.39-6.72-5.49l0,4.86-1.32,0,.06-9.45,1.31.07,0,4.29c2.47-1.61,3.71-2.37,6.17-4.09l1.64,0c-2.54,1.81-3.81,2.6-6.35,4.23,2.67,2.1,4,3.2,6.66,5.5Z"/><path d="M503.84,31.7l.05-10.1c2.74,0,4.11-.05,6.86-.17,0,.39,0,.59,0,1-2.22.07-3.32.09-5.54.1l0,3.5c1.75.06,2.63.08,4.38.11l.19,1c-1.83-.06-2.74-.09-4.57-.17l0,4,5.73.47v1Z"/><path d="M519.85,22l0,4.42h4.22l.19,1.17-4.41-.07,0,5.7-1.31-.12,0-12.12,6.58-.48c0,.47,0,.71,0,1.19Z"/><path d="M536.56,34.57l-1.33.2c-1.7-2.85-2.55-4.22-4.25-6.82l-1.69,0,0,6.14L528,33.94l0-13.69,3.35-.24c2.57-.19,4.2,1.17,4.2,3.76a3.79,3.79,0,0,1-3.13,4C534.07,30.38,534.9,31.73,536.56,34.57Zm-5.28-13.29-2,.11c0,2.14,0,3.2,0,5.34H531c1.94,0,3.16-1,3.17-2.84S533.19,21.17,531.28,21.28Z"/><path d="M544.27,35.76c-3.5-.34-5.9-3.83-5.89-8.54s2.45-8.2,5.95-8.46,5.91,3.23,5.91,8.54S547.81,36.1,544.27,35.76Zm0-15.53c-2.76.17-4.57,3-4.58,7s1.82,6.88,4.58,7.1,4.57-2.61,4.58-7S547.07,20.07,544.31,20.23Z"/><path d="M566.32,37.5c-.34-6.87-.51-10.28-.86-17.05-1.82,6.92-2.73,10.26-4.55,16.66l-1-.1c-1.83-6.69-2.74-9.91-4.56-16.08-.35,6.23-.52,9.33-.87,15.46l-1.22-.11c.42-7.11.64-10.7,1.06-17.94l1.62-.12c1.8,6.26,2.7,9.52,4.5,16.29,1.81-6.52,2.72-9.91,4.53-17l1.6-.12c.42,8,.63,12,1,20.16Z"/><path d="M5.49,36.86c.2,6.45.24,9.73.4,16.22l-1.35.26c-.12-6.37-.15-9.58-.31-15.92L.09,39.28V37.81L9.4,33.39,9.67,35Z"/><path d="M22.13,50l-.66-10c-3,.72-4.5,1.12-7.45,2l.51,9.5-1.37.26c-.39-7.83-.51-11.82-1-19.56l1.28-.54c.23,3.39.31,5.12.49,8.55,2.94-.92,4.43-1.34,7.42-2.09-.24-3.63-.34-5.47-.65-9L22,28.65c.76,8.29.91,12.63,1.48,21.09Z"/><path d="M27.56,49C27,40.43,26.82,36,26,27.66a63.69,63.69,0,0,1,7.13-1.22l.2,1.86c-2.33.3-3.48.49-5.78,1,.28,2.86.33,4.38.53,7.31,1.82-.36,2.74-.52,4.57-.81L33,37.63c-1.91.31-2.87.48-4.77.85l.58,8.32c2.39-.45,3.59-.67,6-1.1l.14,1.91Z"/><path d="M45.41,37.46l-1.74.08.59,8.59-1.39.15c-.57-8.2-.62-12.52-1.53-20.41,1.38,0,2.08,0,3.47,0,2.82,0,4.85,1.91,5.09,5.51C50.18,35.32,48.27,37.35,45.41,37.46Zm-.49-9.89-2,0c.37,3.14.37,4.88.59,8.15l1.8-.07c2.13-.07,3.33-1.43,3.14-4.22C48.32,28.86,47.06,27.56,44.93,27.58Z"/><path d="M59.7,45.73c-3.72.17-6.55-3.92-7-10S54.49,25.5,58.22,25.5s6.76,3.93,7.14,9.86S63.46,45.56,59.7,45.73ZM58.43,27.17c-2.94,0-4.59,3.43-4.25,8.46s2.52,8.46,5.45,8.34,4.63-3.59,4.31-8.52S61.37,27.15,58.43,27.17Z"/><path d="M75.16,45c-3.72.17-6.53-3.79-6.91-9.68s1.76-10,5.49-9.8,6.73,4.36,7.11,9.85S78.91,44.85,75.16,45ZM74,27.13C71,27,69.37,30.39,69.68,35.25s2.47,8.17,5.4,8.06,4.64-3.33,4.33-8S76.89,27.24,74,27.13Z"/><path d="M94.06,43.68l-1.39.4c-2-2.76-3.06-4.22-5.1-7.3l-1.79-.08.56,7.5-1.39.06c-.5-6.9-.28-10.77-1.45-17.06l3.52.57c2.7.44,4.78,2.06,5,4.77a3.48,3.48,0,0,1-2.95,4.1C91.07,39.61,92.06,41,94.06,43.68ZM87.23,29.07l-2.09-.3a49.74,49.74,0,0,1,.54,6.46l1.85.12c2.05.13,3.26-.85,3.09-2.88A3.58,3.58,0,0,0,87.23,29.07Z"/><path d="M111.71,44c-.89-1.81-1.34-2.7-2.25-4.49-2.43-.26-3.65-.37-6.08-.45-.51,1.72-.76,2.6-1.27,4.41l-1.41.06c1.65-5.75,3.06-8.9,3.83-13l1.42.22c3.57,4.68,4.37,7.7,7.07,13.21ZM105.62,32a55.22,55.22,0,0,1-1.85,6c2,.11,3.07.21,5.11.43C107.59,35.82,107.32,34.2,105.62,32Z"/><path d="M125.37,46.23a141.84,141.84,0,0,0-9.11-12.68l1.08,11.31-1.3-.22c-.52-5.3-.14-8.54-1.58-13l1.32,0c4.35,3.79,5.65,6.55,9.15,11.8-.37-4.81,0-7.67-1.22-11.75H125c1.44,5.07,1,8.69,1.41,14.67Z"/><path d="M134.18,47.73l-3.69-.63c-.41-6.26.11-10-1.34-15.36H133c4.66,0,7.78,3.23,8,8.43C141.24,45.56,138.61,48.49,134.18,47.73ZM133.31,33l-2.43,0c1.18,4.43.57,7.74.9,12.95l2.4.37c3.49.54,5.62-1.46,5.39-6.19S136.8,33.06,133.31,33Z"/><path d="M158.31,50.13c-3-3.79-4.46-5.79-7.47-9.73l.34,9.52-1.39-.07c-.27-7.35.42-11.78-1-18h1.4c.67,2.86.54,4.71.66,8.07,2.49-3.31,3.95-5.21,5.89-8.07h1.74c-2,2.9-3.5,4.86-6.07,8.28,3,3.89,4.46,5.86,7.4,9.56Z"/><path d="M162.38,49.7c-.21-7.3.58-11.77-.92-17.91l7.3,0,.34,1.29-5.9.09c.51,2.08.21,3.63.28,6.11,1.86-.08,2.79-.13,4.64-.26l.24,1.57c-1.93.15-2.9.22-4.84.32l.2,7c2.42-.22,3.62-.39,6-.71l0,1.56C166.83,49.23,165.36,49.45,162.38,49.7Z"/><path d="M172.87,48.33c-.15-6.86.73-11.15-.79-16.76l7.26-.75.35,1.24-5.88.62c.52,1.91.18,3.41.23,5.75,1.85-.23,2.78-.33,4.63-.52l.23,1.51c-1.93.2-2.9.31-4.83.55l.14,6.63c2.41-.34,3.62-.48,6-.7l0,1.53C177.31,47.68,175.83,47.88,172.87,48.33Z"/><path d="M186.39,39.76l-1.73.11.12,7.25-1.39.07c-.11-6.85.84-11.19-.73-16.71l3.45-.35c2.81-.28,5,.92,5.09,4.12C191.25,37.75,189.23,39.58,186.39,39.76Zm0-8.39-2,.19c.63,2.22.19,4,.23,6.79l1.8-.13c2.12-.14,3.4-1.38,3.36-3.83C189.75,32.13,188.48,31.17,186.35,31.37Z"/><path d="M203.9,29.85c1.54,5.93.23,10.79.3,18.06l-1.37-.14c-.07-7.17,1.23-12-.3-17.81l-4.53.38L197.63,29l10.25-1,.59,1.52Z"/><path d="M220.65,49.56l0-10.95c-3.09-.1-4.64-.11-7.73-.17l.06,10.34-1.39-.14c-.06-8.56,1.08-13.9-.65-20.93l1.4-.09c.75,3.07.55,5.14.57,8.88,3.1,0,4.64,0,7.74.06,0-4,.21-6.14-.56-9.41l1.39-.05c1.79,7.64.57,13.37.6,22.61Z"/><path d="M226.14,50.12c0-9.43,1.23-15.29-.58-23.09,2.91,0,4.36,0,7.27.18l.42,1.79c-2.35-.13-3.53-.17-5.88-.2.62,2.69.15,4.74.15,8,1.86.09,2.79.14,4.64.27l.2,2.18c-1.94-.14-2.9-.2-4.84-.31v9.21l6.06.58v2.17Z"/><path d="M241.63,51.66c0-9.73,1.35-15.81-.56-23.79,2.89.32,4.33.52,7.2,1l.44,1.76c-2.33-.36-3.49-.52-5.83-.79.66,2.73.15,4.85.14,8.17,1.85.2,2.77.31,4.62.55l.2,2.19c-1.93-.24-2.89-.35-4.82-.55,0,3.77,0,5.66,0,9.44l6.06.61v2.16Z"/><path d="M262.11,53.88c-.74-3.08-1.11-4.64-1.85-7.79-2.42-.35-3.62-.52-6-.83l-1.69,7.46-1.41-.14c2.18-9.4,4.67-15.31,4.73-22.37l1.4.32c4.21,7.86,3.94,13.86,6.2,23Zm-5-21.33c0,3.35-1.42,6.34-2.42,10.69,2,.29,3,.44,5.08.76C258.73,39.45,259.14,36.31,257.13,32.55Z"/><path d="M275.58,54.73l-1.4.31c-1.88-4-2.82-6-4.67-10.18l-1.78-.29.14,9.63-1.39-.14c-.12-8.8,1.3-14.53-.93-21.41l3.47.86a6.23,6.23,0,0,1,5.13,6.16c.07,3.24-1.27,4.84-3.15,5.15C272.82,48.9,273.74,50.88,275.58,54.73ZM269.47,35l-2.05-.48c.86,2.61.25,4.87.29,8.21l1.83.32c2,.35,3.28-.83,3.23-3.51S271.45,35.43,269.47,35Z"/><path d="M281.95,37.88c2.26,5.32.5,10.6.72,17.78l-1.37-.13c-.21-7.24,1.54-12.55-.7-18l-4.43-1-.54-1.4c4,1,6,1.51,10,2.45l.77,1.3C284.63,38.51,283.73,38.3,281.95,37.88Z"/><path d="M299.13,57.26l-.39-8.55c-3.08-.41-4.61-.62-7.68-1.08l.36,8.89L290,56.38c-.29-7.49,1.17-12.7-1.42-18.11l1.37.29c1.13,2.3.89,4.18,1,7.39,3.06.49,4.6.72,7.67,1.15-.14-3.09.1-4.91-1.07-7.07l1.38.23c2.71,4.95,1.21,10,1.54,17.13Z"/><path d="M314.58,58.75c-3.27-.15-5.33-3-5.53-7-.21-4.33.48-7.22-1.26-10.16l1.39.18c1.71,2.85,1,5.66,1.25,9.88.15,3.19,1.53,5.49,4.09,5.62s3.76-1.77,3.6-4.92c-.21-4.1.49-6.88-1.28-9.57l1.39.18c1.78,2.64,1.08,5.41,1.29,9.47S317.84,58.9,314.58,58.75Z"/><path d="M333.18,58.57c-3.55-4.84-5.32-7.48-8.86-13.16L325,58.73h-1.31c-.34-6.39,1.28-11.22-1.63-15.28l1.31.17c5.52,3.67,5.93,7.46,9.37,12.25-.28-4.82.93-8.47-1.5-11.34l1.31.12c3,3.44,1.32,8,1.67,13.88Z"/><path d="M347.5,57.95l-.4-6.36c-3.1,0-4.65,0-7.75,0l.41,6.68-1.39.06C338,52.7,339.73,48.18,336.7,45l1.39.09c1.31,1.36,1,2.88,1.18,5.29,3.1,0,4.65.05,7.75,0-.14-2.3.14-3.77-1.19-5l1.4,0c3.09,2.77,1.33,7.17,1.66,12.45Z"/><path d="M353,57.7c-.32-5.2,1.46-9.57-1.66-12.23,2.91,0,4.37,0,7.29-.14l.71.57c-2.36.09-3.54.12-5.9.15,1.07.9.38,2.46.49,4.23,1.86,0,2.79-.08,4.66-.15l.27,1.15c-1.94.08-2.91.11-4.86.17l.31,5,6.08-.27.07,1.15Z"/><path d="M373.57,56.89c-.82-1.72-1.23-2.57-2-4.27-2.44.15-3.66.22-6.11.35l-1.47,4.24-1.41.07c1.89-5.26,4.85-9.71,3.81-12.41l1.43-.11c5.39,2.34,4.66,6.65,7.13,11.79ZM368,45.54c.52,1.28-1.25,3.74-2.12,6.26,2.06-.11,3.08-.18,5.14-.31C369.81,49.07,370.55,46.67,368,45.54Z"/><path d="M378,56.55c-.29-5.32,1.65-9.88-1.64-12.49l1.4-.12c3,2.38,1.3,6.47,1.57,11.34l5.38-.27.27,1.21Z"/><path d="M389.48,43.62c3.06,2.47.62,7.32.87,12.35L389,56c-.25-5,2.18-9.84-.88-12.3l-4.54.37-.75-.6,10.27-.87,1,.6Z"/><path d="M406.88,55.2l-.31-6.92-7.75.51.32,6.77-1.39.07c-.27-5.64,1.79-10.46-1.63-13.24l1.4-.12c1.48,1.21,1.13,2.8,1.24,5.25l7.75-.54c-.11-2.5.25-4.13-1.25-5.37l1.4-.12c3.49,2.88,1.36,7.83,1.62,13.64Z"/><path d="M417.29,48.51l.26,6.2-1.39.06-.26-6.15c-2.12-3.29-2.21-5.79-6.2-7.3l1.2-.26c3.5,1.33,3.84,3.3,5.68,6.2,1.54-3.07,3-5.21,2.86-6.84l1.52-.13C421,42.21,419.15,44.9,417.29,48.51Z"/><path d="M433.66,53.95l-3.21.15c-.23-6.17,2-11.41-1.61-14.48l3.23-.27c2.87-.24,5.41.28,5.49,2.62a3.71,3.71,0,0,1-2,3.57,3.56,3.56,0,0,1,2.89,3.65C438.56,52.19,436.65,53.8,433.66,53.95ZM432.83,40l-1.82.15c1.27,1.07.41,3,.49,5.12l1.78-.12a2.82,2.82,0,0,0,2.91-3C436.14,40.49,434.84,39.85,432.83,40Zm.6,6.42-1.88.13.23,6.12,2-.1c2.12-.11,3.42-1.29,3.35-3.24C437,47.21,435.61,46.3,433.43,46.44Z"/><path d="M446.3,46.87l.21,6.47-1.39.06-.21-6.48c-2.1-3.54-2.11-6.27-6.22-8l1.19-.21c3.6,1.52,3.89,3.66,5.71,6.79,1.57-3.14,3.05-5.31,2.86-6.73l1.52,0C450.15,40.47,448.19,43.18,446.3,46.87Z"/><path d="M459.56,52.75c-.17-5.9,2.28-11.16-1.53-13.75l1.4,0c3.81,2.55,1.35,7.8,1.52,13.66Z"/><path d="M474.69,52.06c-3.37-4.5-5.06-6.84-8.47-11.68l.32,12.05-1.31.06c-.16-5.76,2.33-11-1.51-13.39l1.32,0c6.31,2,6.07,6,9.34,10.4C474.28,45,476.15,41,473,39.28l1.32,0c3.89,2.08,1.33,7.21,1.46,12.7Z"/><path d="M484.08,39.88c3.59,1.63.45,6.92.54,11.72l-1.37.06c-.1-4.83,3-10.13-.55-11.8l-4.55-.05-.88-.44c4.12.08,6.18,0,10.3.22l1.09.38C486.84,39.89,485.92,39.9,484.08,39.88Z"/><path d="M492,51.47c-.09-5.1,2.57-10.11-1.41-11.67l7.27.69.91.31-5.88-.52c1.37.52.35,2.32.38,4,1.86.12,2.79.18,4.65.33l.22,1.13c-1.94-.15-2.91-.22-4.85-.33l.09,4.91c2.43.08,3.65.15,6.08.33l0,1.11C496.51,51.59,495,51.51,492,51.47Z"/><path d="M512,52.72c-3.31-4.32-5-6.51-8.3-10.94l.17,10.35L502.6,52c-.08-4.93,2.65-9.91-1.41-11.23l1.31.12c6.47,1.36,6,5.34,9.26,9.54-.06-4,2-7.83-1.36-8.79l1.31.12c4.12,1.16,1.33,6.15,1.39,11Z"/><path d="M521.52,42.87c3.8.93.4,6.22.45,10.57l-1.37-.1c-.05-4.35,3.35-9.64-.45-10.59l-4.53-.41-.93-.25,10.26,1,1.15.23Z"/><path d="M529.48,54c0-4.71,2.85-9.72-1.38-10.63l1.39.13c4.24.89,1.33,5.9,1.37,10.6Z"/><path d="M540.78,55a6.45,6.45,0,0,1-6.3-6.49c0-3.59,1.06-4.48,4.78-4.13s7.8,1.65,7.81,5.14S544.53,55.3,540.78,55Zm-.58-10.46c-2.93-.27-4.31,1.1-4.29,4.05a5.15,5.15,0,0,0,4.9,5.37,4.21,4.21,0,0,0,4.82-4.54C545.62,46.52,543.13,44.84,540.2,44.57Z"/><path d="M560,56.21c-3.25-4-4.88-6-8.16-10.13l0,9.53-1.31-.1c0-4.54,3-9.57-1.35-10.15l1.31.12c6.73.76,6.08,4.76,9.24,8.65,0-3.64,2.27-7.53-1.34-7.89l1.31.12c4.43.43,1.34,5.46,1.34,9.92Z"/><path d="M6.37,65.69,6.29,85.41l-1.44.39L4.91,66l-4.81.94v-2L11,62.87l.2,1.87Z"/><path d="M23.66,80.74,23.81,71l-8.18,1.88-.1,10-1.47.39.19-21.06L15.73,62l-.09,9,8.19-1.82L24,60.44l1.49-.28-.34,20.18Z"/><path d="M29.6,79.14,30,59.31,31.48,59l-.42,19.74Z"/><path d="M38.85,77.25a6,6,0,0,1-3.9-.39l.26-2a5.16,5.16,0,0,0,3.74.69,4,4,0,0,0,3.15-4c0-1.91-.67-2.77-2.9-3.64-2.8-1.1-3.8-2.12-3.74-4.9a5.63,5.63,0,0,1,4.38-5.69,4.51,4.51,0,0,1,3.27.54l-.26,2A3.89,3.89,0,0,0,39.73,59,3.5,3.5,0,0,0,37,62.54c0,1.78.65,2.48,2.9,3.38,2.71,1.09,3.82,2.36,3.75,5.19A6.11,6.11,0,0,1,38.85,77.25Z"/><path d="M52.57,75l.54-18.59,1.51-.07-.54,18.51Z"/><path d="M62,74.5a7,7,0,0,1-4-.92l.27-1.88a6.15,6.15,0,0,0,3.81,1.18,3.27,3.27,0,0,0,3.21-3.41c.05-1.81-.67-2.7-2.93-3.83-2.84-1.41-3.86-2.52-3.78-5.13a4.68,4.68,0,0,1,4.47-4.81,5.35,5.35,0,0,1,3.3.81l-.27,1.85a4.61,4.61,0,0,0-3.14-1,2.91,2.91,0,0,0-2.84,3c0,1.68.65,2.44,2.93,3.58,2.75,1.38,3.86,2.69,3.78,5.39A5,5,0,0,1,62,74.5Z"/><path d="M86.62,74.33l-1.81-6.4-6.63.1c-.81,2.46-1.21,3.68-2,6.12H74.61C77.2,66.59,78.49,62.76,81.05,55l1.55-.07c2.18,7.49,3.28,11.29,5.49,19ZM81.74,57.2c-1.19,3.68-1.79,5.51-3,9.15l5.57-.11C83.3,62.6,82.78,60.79,81.74,57.2Z"/><path d="M100.89,74.12H96.82l.37-19.75,4.11-.19c5-.23,7.78,4,7.69,10C108.91,70.26,105.77,74.12,100.89,74.12ZM101.29,56l-2.63.11-.3,16.26H101c3.85,0,6.35-2.73,6.44-8.21S105.06,55.82,101.29,56Z"/><path d="M122.72,74.35c-.78-2.37-1.16-3.58-1.93-6l-6.6-.37c-.77,2.44-1.16,3.68-1.94,6.2h-1.54c2.5-7.92,3.73-11.71,6.15-18.86l1.53.26c2.28,7.76,3.43,11.45,5.8,18.43Zm-5.14-16.76c-1.12,3.39-1.68,5.13-2.82,8.69l5.54.4C119.2,63.13,118.66,61.31,117.58,57.58Z"/><path d="M137.43,74.65l-1.53.25c-2-3-3-4.61-5-7.83L129,66.85l0,7.45-1.51-.08,0-17,3.8.65c2.91.5,4.79,2.41,4.82,5.2a3.65,3.65,0,0,1-3.52,4C134.5,70.17,135.47,71.69,137.43,74.65ZM131.22,59.3,129,58.94l0,6.47,2,.24c2.22.27,3.6-.65,3.58-2.72S133.38,59.65,131.22,59.3Z"/><path d="M149.67,75.75c-3.19-3.38-4.78-5-7.91-8.64l.14,8-1.51-.1-.25-15.65,1.49.24.12,7.06c2.76-2.51,4.13-3.71,6.87-6.27l1.87.12c-2.82,2.67-4.23,3.91-7.07,6.49,3.12,3.52,4.7,5.15,7.86,8.5Z"/><path d="M164.23,61.65l.45,14.85-1.49-.09-.44-14.64c-1.95.14-2.92.18-4.88.23l0-1.39a78.91,78.91,0,0,0,11-1l.27,1.52C167.17,61.36,166.19,61.48,164.23,61.65Z"/><path d="M182.62,77.31l-1.52.33C179,74,178,72.27,175.89,69l-1.94.06.28,8L172.71,77l-.61-17.85c1.52-.22,2.28-.35,3.81-.54,2.93-.37,4.87,1.41,5,4.78.11,3-1.34,4.74-3.39,5.33C179.55,72,180.57,73.73,182.62,77.31Zm-6.71-17.08-2.25.27.24,7,2-.09a3.34,3.34,0,0,0,3.49-3.84C179.3,61.21,178.08,60,175.91,60.22Z"/><path d="M191,78.35c-3.56-.22-5.78-3.46-6-8.09l-.46-12.44,1.5-.06L186.53,70c.14,3.71,1.62,6.34,4.4,6.49s4.1-2.16,3.95-6l-.49-12.66,1.51.08.5,12.67C196.58,75.53,194.54,78.57,191,78.35Z"/><path d="M205.29,60.58l.8,18.38-1.49-.09-.79-18.43c-2-.19-2.93-.31-4.88-.47l-.07-1.84c4.42.38,6.64.67,11.06,1.13l.3,1.82Z"/><path d="M224,80.36l-.47-9.45c-3.34-.37-5-.53-8.36-.83l.45,9.48-1.51-.11-.94-19.87,1.5.16.41,8.56c3.35.31,5,.47,8.36.84L223,60.61l1.5.16,1,19.78Z"/><path d="M241.35,83.46c-4-.72-6.92-5.47-7.21-11.63s2.28-10.2,6.29-9.82,7,5.14,7.23,11.63S245.37,84.19,241.35,83.46Zm-.86-19.59c-3.16-.32-5.06,3-4.81,8.12s2.49,9.08,5.63,9.62,5-2.77,4.81-8.12S243.65,64.19,240.49,63.86Z"/><path d="M252.57,65.51l.3,7.76,4.82.65.29,2-5-.71.39,10L251.85,85,251,63.42l7.54.73.07,2Z"/><path d="M268.07,87.89,267.33,65l1.5.15.73,23Z"/><path d="M278.64,68.23l.6,21.67-1.47-.27-.61-21.56-4.88-.51-.06-2.09,11.07,1.07.28,2.2Z"/><path d="M297.08,70.14l.49,23-1.48-.23L295.6,70l-4.88-.5-.05-2.23,11.07,1.07.27,2.31Z"/><path d="M315.4,95.21l-.26-12.39c-3.35-.21-5-.35-8.36-.68L307,94.4l-1.5-.18L305,68.64l1.5.13.23,11.07c3.34.32,5,.46,8.36.66l-.23-11.19,1.51.06.54,26Z"/><path d="M321.38,95.62l-.54-26.13c3.15.05,4.72.05,7.87,0l.05,2.38c-2.55,0-3.82,0-6.37,0l.19,9c2,.05,3,.07,5,.08l.27,2.37c-2.1,0-3.16,0-5.26-.1l.21,10.17c2.64.12,4,.16,6.6.21l.05,2.38C326.25,95.86,324.63,95.8,321.38,95.62Z"/><path d="M347.56,95.95c-3.23-5.51-4.85-8.31-8.08-13.86l.32,13.86-1.51,0-.61-26.82,1.51-.07.28,12.23c2.72-5,4.07-7.51,6.79-12.55l1.88-.09c-2.79,5.15-4.18,7.74-7,12.85,3.2,5.5,4.81,8.27,8,13.71Z"/><path d="M362.21,94.47c-3.72-8.51-5.59-12.91-9.32-21.77l.53,22.6-1.42.1-.63-26.88,1.42-.07c3.63,8.6,5.44,12.89,9.05,21.18l-.5-21.58,1.42-.07.61,26.35Z"/><path d="M373.85,93.36c-4,.65-6.84-4.51-7-12.48s2.5-13.68,6.52-13.87,6.89,4.88,7,12.38S377.88,92.7,373.85,93.36Zm-.47-24.07c-3.17.18-5.15,4.8-5,11.37s2.33,10.89,5.47,10.41,5.11-5.15,5-11.43S376.55,69.11,373.38,69.29Z"/><path d="M398.35,87.65l-1.27.34c-1.72-7-2.6-10.71-4.41-18.34-1.67,7.9-2.49,12-4.09,20.42l-1.24.28c-1.9-8.91-2.87-13.53-4.83-23l1.48-.6c1.63,8.14,2.44,12.12,4,19.83,1.53-8.23,2.31-12.24,3.9-20l1.55-.08c1.73,7.48,2.58,11.09,4.24,18,1.43-7.61,2.17-11.29,3.68-18.38l1.51-.08C401,74.3,400.11,78.63,398.35,87.65Z"/><path d="M406.13,85.6l.2-19.73,1.51-.07-.21,17.7c2.28-.5,3.42-.74,5.71-1.18l.18,1.61C410.55,84.54,409.07,84.88,406.13,85.6Z"/><path d="M420.53,82.59c-1.6.28-2.4.42-4,.73l.41-18,4.11-.2c5-.24,7.74,3,7.58,7.9A9.49,9.49,0,0,1,420.53,82.59ZM421,66.71l-2.62.16-.35,14.57,2.59-.43c3.78-.61,6.29-3.2,6.44-7.79S424.8,66.49,421,66.71Z"/><path d="M432.16,80.89l.55-16.3,7.87-.38-.05,1.43-6.36.33L434,71.51c2-.15,3-.22,5-.35l.17,1.42c-2.1.14-3.15.22-5.24.39l-.22,6.29c2.62-.28,3.94-.4,6.57-.61l-.05,1.43C437,80.34,435.38,80.51,432.16,80.89Z"/><path d="M449.82,79.81c-4.48.17-7-3-6.81-7.8s3-8.35,7.25-8.55a6.71,6.71,0,0,1,4.42,1.17l-.32,1.64a5.92,5.92,0,0,0-4.17-1.39c-3.37.16-5.48,3-5.63,7s1.77,6.6,5.32,6.47a6.46,6.46,0,0,0,3.5-1.1l.16-4.74-3.64.14-.17-1.41,5.35-.21-.24,7A9.22,9.22,0,0,1,449.82,79.81Z"/><path d="M459.07,79.23l.51-15.91,7.87-.37,0,1.44-6.37.29-.17,5.45,5-.2.18,1.43-5.26.2-.2,6.19,6.61-.21,0,1.44Z"/><path d="M481.53,63.76l-.37,14.81-1.49,0L480,63.83l-4.9.22,0-1.45c4.44-.21,6.67-.35,11.11-.51l.19,1.46C484.5,63.61,483.51,63.67,481.53,63.76Z"/><path d="M499.14,78.53l.15-7.74c-3.36-.19-5-.24-8.4-.25l-.17,7.82h-1.52L489.57,62h1.51l-.15,7.06c3.36,0,5,.06,8.39.26l.14-7,1.51.11-.31,16.15Z"/><path d="M515.95,79.67l-1.87-5.44-6.62-.42-2,5.08L504,78.79,510.2,63l1.55.11c2.26,6.54,3.39,9.79,5.68,16.27Zm-5-14.71L508,72.41l5.56.36C512.51,69.65,512,68.09,510.91,65Z"/><path d="M524.09,65.54,523.91,80l-1.49-.09.18-14.45-4.89-.35,0-1.43,11.09.8.2,1.44Z"/><path d="M548.17,81.59l-1.93-5.32-6.62-.42-1.9,5-1.54-.09,6.07-15.38,1.55.11c2.32,6.38,3.49,9.56,5.84,15.89ZM543,67.23l-2.8,7.28,5.56.36C544.63,71.82,544.08,70.29,543,67.23Z"/><path d="M556.15,67.82l0,14.09-1.49-.09c0-5.64,0-8.46,0-14.1l-4.89-.35V66l11.09.8.22,1.4Z"/><path d="M15.46,116.68c-1.26-2.74-1.86-4.08-3.08-6.71l-6.79.83c-.38,2.55-.57,3.81-1,6.26L3,117.15c1.3-7.5,2-11.51,3.12-20l1.57-.42c3.66,7.28,5.37,11.17,9.17,19.44ZM7.28,99.24c-.53,4-.82,6-1.39,9.81l5.7-.81C9.86,104.53,9,102.73,7.28,99.24Z"/><path d="M31,115.61c-5-7.9-7.18-11.53-11.91-18.17,1.14,7.47,1.56,11.2,2.77,18.67l-1.47.08c-1.41-8.75-1.87-13.12-3.28-21.87l1.44-.38c4.64,6.31,6.81,9.77,11.5,17.27-1.16-7.83-1.56-11.75-2.83-19.58l1.44-.38c1.59,9.72,2,14.58,3.55,24.3Z"/><path d="M41,104.13c.58,4.34.86,6.51,1.57,10.85l-1.57.08c-.71-4.29-1-6.43-1.56-10.72-3-5.7-4.45-8.45-7.56-13.67l1.43-.87c2.74,4.67,4,7.12,6.64,12.15,1.17-5.4,1.8-8.17,2.78-13.77l1.69-.28C43.25,94.52,42.45,97.78,41,104.13Z"/><path d="M63.84,114.38c-4.63.24-8.29-5.42-9.33-13.8S55.37,86,59.78,85.75a6.43,6.43,0,0,1,5.06,2.2c.07,1.14.09,1.71.14,2.85-1.4-1.6-3-2.67-4.82-2.57-3.52.2-4.91,5.11-4,12.2s3.65,11.63,7.33,11.44a4.17,4.17,0,0,0,3.33-1.9c-.48-3.31-.67-5-1.07-8.27l-3.78.18-.53-2.47c2.22-.12,3.34-.17,5.56-.25.57,4.87.82,7.31,1.57,12.18A6.07,6.07,0,0,1,63.84,114.38Z"/><path d="M73.46,113.37C71.59,102.43,71.67,97,69.8,86h1.58c1.87,10.91,1.77,16.36,3.64,27.27Z"/><path d="M86.13,112.4l-1.4.17c-4.3-10.22-5.35-15.51-9.65-26.25l1.46-.59c3.82,9.53,4.87,14.23,8.36,23.36C85.6,99.63,86.73,95,87.2,86h1.65C88.23,96.22,86.68,101.54,86.13,112.4Z"/><path d="M95.6,110.94c-1.85-10-1.44-15-3.29-25l8.26,0c.16.86.24,1.29.38,2.15l-6.67.09c.54,3.39.71,5.08,1.07,8.47,2.09-.13,3.14-.2,5.23-.3l.45,2.15c-2.18.13-3.27.21-5.45.37.4,3.85.58,5.77,1.19,9.62,2.71-.35,4.06-.52,6.78-.78.14.86.21,1.29.38,2.15C100.59,110.22,98.93,110.48,95.6,110.94Z"/><path d="M118,109.09c-5.17-7.77-6.7-11.56-11.52-19.43,1.13,7.91.88,11.87,2.42,19.79l-1.47.11c-1.83-9.44-1.23-14.17-3.06-23.61h1.49c5.08,7.66,6.64,11.36,11.18,18.89-1-7.56-.72-11.34-2.2-18.89h1.49c1.82,9.26,1.05,13.89,2.87,23.15Z"/><path d="M132.37,88.37c1.3,8.62.61,12.92,2.25,21.54l-1.53-.16c-1.64-8.59-1-12.89-2.28-21.49-2.05-.13-3.08-.21-5.13-.22-.13-.84-.2-1.26-.37-2.1,4.66,0,7,.32,11.64.61.25.87.37,1.3.59,2.17Z"/><path d="M143,111c-1.78-9.71-.65-14.56-2.43-24.27l1.58.1c1.77,9.77.62,14.66,2.39,24.43Z"/><path d="M164.23,115.13c-1.83-9.28-1.16-13.91-2.41-23.1-1.34,9-3.26,13.45-3.9,22l-1.2-.24c-3.64-9.35-3.94-13.91-7.07-22.79.53,8.6-.4,12.88.69,21.4l-1.43-.28c-1.26-9.9.23-14.88-1-24.9l1.95.12c3.69,9,3.94,13.62,7,23.09,1.16-8.72,3.14-13.2,3.85-22.4l1.92.12c2.18,10.83.92,16.28,3.08,27.24Z"/><path d="M169.92,116.24c-1.65-11.08-.06-16.62-1.71-27.7l8.25.52c.14,1,.2,1.55.3,2.58l-6.66-.5a93.18,93.18,0,0,1,.49,9.54l5.21.62c.1,1,.15,1.56.25,2.6l-5.42-.71a103.15,103.15,0,0,0,.51,10.84c2.69.49,4,.75,6.72,1.23.1,1,.16,1.55.3,2.58C174.87,117.21,173.22,116.88,169.92,116.24Z"/><path d="M202.43,121.36l-1.36-.13c-3.16-10.77-2.73-16.14-5.22-26.78-1.16,10.39-3.34,15.54-3.77,25.71l-1.3-.18c-2.5-9.94-3.36-20.11-5.9-30l1.47-.55c3,10.3,2.58,15.52,4.74,26,1.11-10,3.18-15,3.6-25.2l1.63.1c3.08,10.43,2.71,15.68,5,26.23,1-10.24,3.06-15.39,3.29-25.72l1.58.1C205.54,101.17,203,111.1,202.43,121.36Z"/><path d="M210.7,122c-1-10.3.05-20.55-.9-30.85,3.3.2,4.95.28,8.24.56.14,1.1.2,1.65.28,2.76-2.66-.21-4-.29-6.66-.45a91.31,91.31,0,0,1,.2,10.55l5.25.31c.07,1.11.1,1.67.16,2.78l-5.47-.32a101.12,101.12,0,0,0,.17,12c2.73.16,4.09.23,6.83.34.09,1.1.14,1.65.28,2.76C215.73,122.29,214.06,122.2,210.7,122Z"/><path d="M239.42,123.25a53,53,0,0,1-2.59-9.65c-2.74-.21-4.11-.3-6.85-.48a55.9,55.9,0,0,0-1.42,9.54l-1.59,0c1.07-10,4.25-19.42,5.36-29.37l1.61.26c3,9.61,3.87,19.58,6.9,29.17ZM233.48,96.8c-.73,5.42-1.6,8.17-2.88,13.73,2.31.17,3.46.27,5.76.47A137,137,0,0,0,233.48,96.8Z"/><path d="M254.54,123.07l-1.49.53c-2.89-4.83-3.74-7.32-5.62-12.43l-2-.19a53.9,53.9,0,0,0,.48,12.16l-1.57,0c-1.73-11.1.89-16.65-.85-27.74l4,.71c3,.55,5.53,3.49,5.56,8.08,0,4.09-1.7,6.26-3.88,6.83A61.83,61.83,0,0,0,254.54,123.07ZM247.7,98.45l-2.35-.39a68.23,68.23,0,0,1,.14,10.56l2.08.22c2.31.25,3.88-1.37,3.86-4.77C251.42,100.84,250,98.82,247.7,98.45Z"/><path d="M257.66,123.46c-1.84-10.29.92-15.44-.92-25.74l8.13,1.45c.17.88.24,1.32.34,2.2l-6.58-1.09a51.09,51.09,0,0,1,.19,8.72l5.21.59c.06.9.09,1.35.14,2.24l-5.44-.54a56.57,56.57,0,0,0,.15,9.9l6.83.28c.1.88.17,1.32.34,2.2Z"/><path d="M275.15,123.94c-2-9.24,1-13.86-1-23.1l1.56.28c1.81,8.32-.44,12.49.67,20.81l6,.25a20.55,20.55,0,0,0,.59,2Z"/><path d="M288.9,115.62a25.56,25.56,0,0,0,.63,8.71l-1.57,0a26.21,26.21,0,0,1-.62-8.78c-2-5.07-2.61-7.71-5.93-13.16l1.43-.17c3,4.76,3.67,7.07,5.39,11.54,2.06-4,3.3-5.92,4.1-9.64l1.7.29C293,108.7,291.34,110.93,288.9,115.62Z"/><path d="M298.61,124.58c-2.16-7.86,1-11.79-1.14-19.65l1.56.24c2.18,7.78-1,11.67,1.14,19.45Z"/><path d="M315.63,125c-5.56-6.18-5.37-9.34-9.72-16,.68,6.32-1.3,9.49.56,15.81l-1.48,0c-2.2-7.57,1.06-11.35-1.15-18.92l1.48.18c5.36,6.56,5.33,9.65,9.39,15.68-.51-5.9,1.35-8.86-.48-14.76l1.48.12c2.26,7.2-1.15,10.8,1.11,18Z"/><path d="M328.24,125.68c-4.64-.12-8.39-4-8-9.41s2.21-9.07,6.63-8.92A9.47,9.47,0,0,1,332,109a11.92,11.92,0,0,1,0,1.81,7.71,7.71,0,0,0-4.7-1.88c-3.53-.12-5.12,2.79-5.44,7.38s2.28,7.66,6,7.75a5.07,5.07,0,0,0,3.4-1,21.25,21.25,0,0,1,0-5.29l-3.78-.1c0-.64-.07-1-.11-1.59,2.23.07,3.34.09,5.57.14-.24,3.12-.56,4.68.07,7.81A6.55,6.55,0,0,1,328.24,125.68Z"/><path d="M354.54,126.17a18.91,18.91,0,0,1-2.75-6.26c-2.75,0-4.12,0-6.87,0a14.64,14.64,0,0,0-1.26,5.81l-1.59,0c.14-7.15,5.22-10.77,5.28-18.26l1.62-.09c4.87,7.19,2.29,10.85,7,18.45Zm-5.89-16.63c-.6,3.55-1.65,5.3-3.06,8.77,2.31,0,3.47,0,5.78,0C350.48,114.74,350.37,113,348.64,109.55Z"/><path d="M363,126.18l-3.61-.08c-2.38-7.75,1.57-11.62-.82-19.37,1.46-.14,2.19-.21,3.64-.38,3.23-.36,5.51,1.47,5.53,4.53a5.09,5.09,0,0,1-2.62,4.62c1.8.57,2.8,2.09,2.75,4.85C367.84,124.3,366.4,126.25,363,126.18Zm-.42-18.1-2,.19a21.63,21.63,0,0,1,.11,6.8l2-.1a3.63,3.63,0,0,0,3.56-3.87C366.23,109,364.87,107.86,362.62,108.08Zm0,8.53-2.11.08c-.28,3.1-.53,4.64,0,7.74l2.2,0c2.38,0,3.56-1.41,3.6-4C366.41,117.73,365.1,116.51,362.65,116.61Z"/><path d="M378.77,126.94c-4.18-.1-8.14-4.64-7.58-11.1s2.37-11.4,6.51-12.14,8.14,3.69,7.59,11S383,127,378.77,126.94Zm-.6-21.23c-3.27.53-4.9,4.54-5.36,10s2.23,9.23,5.52,9.25,4.89-4.06,5.35-10S381.44,105.18,378.17,105.71Z"/><path d="M395.4,127.09c-3.68.05-7-3.85-6.67-9.62.31-6.19,1.35-9.28-.3-15.47l1.54-.35c1.63,6.15.66,9.22.33,15.37-.25,4.65,1.72,7.83,4.6,7.73s3.74-3.36,4-8.49c.29-6.69,1.29-10-.43-16.72l1.53-.41c1.73,6.77.73,10.16.45,16.94C400.14,122.7,399.08,127,395.4,127.09Z"/><path d="M410,99.37c1.61,10.62-1.75,15.93.91,26.55l-1.54.12c-2.65-10.53.71-15.8-.89-26.34-2,.44-3,.67-5,1.15a22,22,0,0,0-.51-2.52c4.51-1.17,6.77-1.7,11.33-2.64a24.76,24.76,0,0,1,.76,2.63C413,98.73,412,98.93,410,99.37Z"/><path d="M440.14,123.15l-1.36.13c-4.51-10.53-2.34-15.81-5.3-26.3-.67,10.9-4.6,16.35-3.72,27.18l-1.31.13c-3.39-9.76-2.87-19.92-6.13-29.71l1.37-.92c4.29,10.23,2.17,15.4,4.71,25.78.74-10.6,4.46-15.95,3.57-26.63l1.61-.19c4.37,10.28,2.35,15.46,5.06,25.78.57-10.64,4.28-16,3.2-26.57l1.58-.11C443.65,102.49,439.84,112.39,440.14,123.15Z"/><path d="M458.63,121.49c-1.5-5.8-1.06-8.7-.67-14.51-3.49.15-5.23.23-8.72.48-.35,5.88-.77,8.81.73,14.69l-1.56.15c-1.88-10.36.49-20.43-1.39-30.79l1.58-.08c1.35,5.31,1.1,8,.81,13.27,3.49-.23,5.24-.31,8.74-.45.32-5.24.59-7.86-.76-13.1l1.58,0c1.87,10.21-.63,20.1,1.24,30.3Z"/><path d="M476.07,121.63a32.25,32.25,0,0,1-3-10.25c-2.75,0-4.12,0-6.87,0a29,29,0,0,0-1,9.83l-1.59,0c.27-10.61,4.77-20,5-30.64l1.63,0c4,9.9,3.52,20.41,7.17,30.42Zm-6-27.44c-.42,5.83-1.64,8.73-3.15,14.53,2.31,0,3.47,0,5.78,0C471.94,102.86,472,100,470.09,94.19Z"/><path d="M483.82,93.23c.69,9.56-1.46,19,.38,28.55l-1.54-.11c-1.84-9.45.3-18.89-.4-28.41l-5.14.1a22.4,22.4,0,0,0-.55-2.77c4.66-.13,7-.24,11.65-.31a24.52,24.52,0,0,1,.78,2.87C486.93,93.17,485.9,93.19,483.82,93.23Z"/><path d="M504.75,124.85c-4.6-.63-8.68-8-7.81-18s2.37-17,6.79-16.76A7.37,7.37,0,0,1,509,93.29a28.35,28.35,0,0,1,.06,3.46c-1.26-2.1-2.93-3.55-4.74-3.67-3.53-.23-5,5.32-5.75,13.85s1.95,14.39,5.6,14.86a3.3,3.3,0,0,0,3.33-1.64,50.63,50.63,0,0,1,.23-10.13l-3.76-.39c0-1.21,0-1.82,0-3l5.55.53c-.56,6-1.13,9-.34,15C508,124,506.76,125.12,504.75,124.85Z"/><path d="M520.51,127c-4.14-.57-8.35-8.18-7.35-18.63s2.57-17.59,6.79-17.34,8.61,7.85,7.69,18.58S524.7,127.58,520.51,127Zm0-32.85c-3.32-.22-4.9,5.6-5.74,14.29s1.91,15,5.18,15.46,5.13-5.43,5.94-14.31S523.85,94.37,520.53,94.15Z"/><path d="M538.32,129c-3.75-.45-8.22-8.21-7.35-19s2.29-18.15,6.5-17.9,8.41,8,7.12,19S542.11,129.43,538.32,129Zm-.23-33.7c-3.29-.21-4.76,5.79-5.49,14.74s2.14,15.42,5.12,15.76,4.32-5.66,5.34-14.74S541.39,95.49,538.09,95.28Z"/><path d="M551.92,129.93l-4-.45c-1.68-12.18,2.45-23.87.77-36.06l4.3.26c5.27.32,9.38,7.88,8.09,18.76C559.77,123.7,556.89,130.47,551.92,129.93Zm1.55-33-2.74-.18c.34,10-2.14,19.63-1.79,29.64l2.63.28c3.93.41,6.47-4.31,7.74-14.32C560.56,102.51,557.41,97.2,553.47,96.95Z"/><path d="M22.06,147.94c-1.43-8.44-2.14-12.66-3.56-21.11-1.21,8.65-1.82,13-3,21.7l-1.26.09C11,140.21,9.33,136,6.1,127.5c.57,8.56.86,12.85,1.43,21.42L6,149c-.64-10.06-1-15.08-1.61-25.12l2-.1c3.22,8.61,4.83,12.9,8.06,21.45,1.2-8.84,1.8-13.25,3-22l2-.1c1.69,9.89,2.54,14.83,4.23,24.7Z"/><path d="M28,147.54l-3-24.7,8.37-.43.27,2.21-6.77.36,1,8.44,5.35-.31.5,2.2-5.59.34,1.16,9.58,7-.47.27,2.21Z"/><path d="M51.76,146.18l-3.09-8-7,.44-1,8L39,146.8c1.33-10,2-15,3.3-25l1.65-.08c3.72,9.57,5.58,14.34,9.32,23.82Zm-8.33-21.55-1.49,11.82,5.92-.36C46.09,131.51,45.21,129.22,43.44,124.63Z"/><path d="M67.73,144.85c-4.81-7.85-7.21-11.8-12-19.74l2.59,20.38-1.52.1-3.07-24.23,1.51-.08c4.64,7.71,7,11.54,11.63,19.16l-2.54-19.63,1.51-.08,3.11,24Z"/><path d="M77.29,144.72a9.19,9.19,0,0,1-4.44-1.44l-.08-2.45a8.16,8.16,0,0,0,4.32,1.76c1.87.12,3-1.24,2.69-4-.3-2.45-1.22-3.83-3.86-5.47-3.31-2.07-4.64-3.42-5.09-6.83-.47-3.61,1.17-6.09,3.82-6.25a5.43,5.43,0,0,1,3.69,1.06c0,1,0,1.51.07,2.51a5,5,0,0,0-3.55-1.43c-1.88.09-2.71,1.8-2.44,3.88s1.2,3.15,3.86,4.82c3.2,2,4.59,4.08,5,7.78C81.82,143,80.07,144.92,77.29,144.72Z"/><path d="M85.25,146.45l-.4-3.8c.66.24,1,.37,1.65.6l.38,3.93C86.22,146.89,85.9,146.74,85.25,146.45Z"/><path d="M101.23,137.14l.89,14-1.58-.2-.89-13.8c-2.74-7.72-4.09-11.47-6.86-18.41l1.52-.86c2.4,6.22,3.59,9.53,6,16.32,1.47-6.68,2.2-10.18,3.68-17.23l1.73-.17C103.91,125.13,103,129.29,101.23,137.14Z"/><path d="M116.74,151.93c-4.3.12-7.7-7.16-8.37-17.81s1.82-18.39,6.08-18.53,7.69,7.32,8.4,18S121.09,151.81,116.74,151.93Zm-2.11-33.19c-3.36.11-5.17,6.35-4.62,15.2s3.19,14.94,6.57,14.85,5.2-6.23,4.62-15.09S118,118.63,114.63,118.74Z"/><path d="M133.87,151.34c-3.79.11-6.4-5.25-7-13.34l-1.48-21.7,1.6.08,1.46,21.18c.44,6.41,2.22,10.78,5.18,10.72s4.17-4,3.69-10.39l-1.54-20.78,1.59.19L139,137.93C139.58,146,137.65,151.23,133.87,151.34Z"/><path d="M165.88,150c-1.47-9.59-2.2-14.43-3.66-24.18-1.14,9.4-1.74,14.3-3,24.52l-1.26,0c-3.24-10.19-4.84-15.49-8-26.51.53,10.52.8,15.83,1.32,26.5l-1.5,0q-.71-15.66-1.46-31.32l1.94.38q3.77,13.52,8,26.94c1.2-10.35,1.78-15.32,2.9-24.84l1.92.37q2.14,14,4.36,28Z"/><path d="M183.39,149.8c-1.29-3.23-1.94-4.88-3.22-8.22l-7-.31-.93,8.56-1.64,0c1.26-11,1.87-16.19,3-26.07l1.62.32c3.8,10.58,5.73,15.6,9.65,25.12ZM174.78,127l-1.33,12,5.88.37C177.5,134.51,176.59,132,174.78,127Z"/><path d="M190.68,139.87l1.51,9.47-1.61,0-1.49-9.55c-3.09-5.41-4.63-8.23-7.67-14.17l1.49-.22c2.66,5.16,4,7.64,6.7,12.4,1.19-4.43,1.78-6.57,2.94-10.71l1.73.22C192.85,132.17,192.13,134.66,190.68,139.87Z"/><path d="M217,148.88c-4.13-4-6.19-6.11-10.29-10.51l2,10.53-1.61,0-3.82-20.6,1.6.14,1.74,9.29c2.31-3.61,3.45-5.34,5.74-8.75l2,.11c-2.36,3.47-3.54,5.23-5.91,8.9,4.07,4.32,6.11,6.36,10.21,10.33Z"/><path d="M232.67,148.3c-5.07-6.5-7.65-9.39-12.72-15.93l3.31,16.13-1.52,0-3.93-19.26,1.51.05c4.92,6.37,7.41,9.27,12.34,15.5l-3.24-15.28,1.51,0,4,18.8C233.41,148.35,233.16,148.33,232.67,148.3Z"/><path d="M244.37,152.67c-3.87-1.8-7.32-7.17-8.49-13.14s1-10.1,5.27-10,7.78,5.44,8.56,13S248.28,154.49,244.37,152.67Zm-3-21.13c-3.35-.2-4.89,3.16-3.95,8.25s3.6,9.6,6.67,10.9,4.67-2.2,4-8.37S244.75,131.73,241.4,131.54Z"/><path d="M269.39,160.24,268,160c-2.39-10.46-3.6-15.6-6.09-25.5-1.2,9.69-1.78,14.39-2.83,23.31l-1.28-.38c-2.66-11.23-4-16.64-6.9-26.85l1.53-.51c2.39,9,3.53,13.68,5.78,23.37,1-8.77,1.53-13.37,2.66-22.86l1.65,0c2.4,9.71,3.57,14.73,5.88,25,1-9.67,1.49-14.64,2.54-24.73l1.61,0Q271,145.55,269.39,160.24Z"/><path d="M299.13,161.73l-1.4.1c-2.33-10.35-3.48-15.62-5.8-26.24-1.39,10.57-2.08,15.91-3.45,26.54l-1.34,0q-3.07-15.33-6.18-30.65l1.55-.63c2.08,10.59,3.11,15.92,5.17,26.51,1.3-10.41,1.95-15.64,3.26-26l1.65,0c2.24,10.41,3.35,15.56,5.59,25.71,1.13-10.33,1.7-15.43,2.83-25.52l1.61,0Q300.86,146.66,299.13,161.73Z"/><path d="M318.21,160.38l-.66-13.6-8.92.22.65,14-1.61.11-1.35-29.41,1.61,0,.59,12.64,8.92-.15-.6-12.29,1.61,0,1.38,28.3Z"/><path d="M336.09,159.42c-1-3.52-1.53-5.29-2.55-8.86l-7,.27c-.61,3.6-.92,5.42-1.53,9.07l-1.63.11q2.42-14,4.93-28l1.65,0c3.07,10.89,4.62,16.23,7.7,26.66Zm-6.87-24.16c-.9,5.2-1.36,7.82-2.26,13.12l5.92-.18C331.41,143.08,330.68,140.49,329.22,135.26Z"/><path d="M343.22,134.88l1.32,23.7-1.59.11-1.31-23.83-5.21-.08-.13-2.4,11.82.28.36,2.3Z"/><path d="M359,157.58l-1.48-24.71,1.6,0,1.48,24.56Z"/><path d="M369.09,157.17a6.61,6.61,0,0,1-4.36-1.21l.08-2.47a6.13,6.13,0,0,0,4.22,1.57c1.89-.12,3.21-1.77,3-4.42-.15-2.31-1-3.43-3.56-5-3.2-1.92-4.42-3.46-4.63-6.9-.23-3.64,1.58-6,4.23-5.94a5.84,5.84,0,0,1,3.62,1.31l-.08,2.34a5.24,5.24,0,0,0-3.47-1.55c-1.89,0-2.83,1.62-2.7,3.71s1,3.25,3.54,4.82c3.09,1.88,4.43,3.51,4.65,6.93C373.92,154.39,371.91,157,369.09,157.17Z"/><path d="M387.65,135.22l.75,17.3c-.58.25-.86.38-1.42.66l-.89-17.92c-2.06.05-3.1.07-5.17.09l-.12-1.95c4.72.09,7.08.15,11.8.12l.28,1.56Z"/><path d="M406.74,150.43l-.08-8.29a57.3,57.3,0,0,0-8.81,0l.15,7.95c-.63.06-.94.1-1.56.19l-.36-16.77,1.6,0,.14,7.18a73,73,0,0,1,8.83,0l-.07-7.49,1.6-.09.12,17.75C407.68,150.61,407.37,150.54,406.74,150.43Z"/><path d="M413,151.8c0-7.65,0-11.47,0-19.12,3.34-.26,5-.43,8.34-.74v1.94c-2.69.19-4,.28-6.73.43,0,2.68,0,4,0,6.7,2.12.1,3.17.16,5.29.22l.22,1.92c-2.21-.12-3.31-.21-5.51-.38,0,3,0,4.57,0,7.61,2.75.54,4.11.86,6.89,1.25v1.95C418,153,416.33,152.56,413,151.8Z"/><path d="M441.26,154.57l-1.63.47c-2.1-4.54-3.14-6.74-5.22-11l-2.07,0c0,4.17,0,6.25,0,10.42l-1.61-.07,0-23.35,4.08-.39c3.13-.3,5.12,1.94,5.13,6.22,0,3.82-1.6,6-3.81,6.78C438.18,147.91,439.2,150.09,441.26,154.57Zm-6.5-21.78-2.41.2V142l2.14-.06c2.37-.07,3.86-1.74,3.86-4.85S437.07,132.6,434.75,132.79Z"/><path d="M444.57,155c0-10.1,0-15.15-.06-25.25l1.6-.15.08,25.47Z"/><path d="M458,156.09c-4.77-.22-7.59-5.86-7.63-13.82s2.83-13.87,7.31-14.14a5.51,5.51,0,0,1,4.75,2.15l-.26,2.82c-1.2-1.6-2.67-2.65-4.5-2.55-3.57.18-5.68,4.86-5.65,11.64s2.2,11.3,6,11.44a4.61,4.61,0,0,0,3.68-1.56l-.06-8.19h-3.87l-.25-2.42c2.27,0,3.41,0,5.68,0l.09,12.12A6.7,6.7,0,0,1,458,156.09Z"/><path d="M478.34,155.09l-.13-12.73c-3.56.07-5.34.13-8.91.28l.12,13.15-1.61.13-.23-27.62h1.6l.1,11.88c3.56-.13,5.34-.17,8.9-.2l-.12-11.5,1.6.08.29,26.42Z"/><path d="M489.85,131.57l.33,22.6-1.58.12-.31-22.85c-2.07-.17-3.11-.24-5.19-.35l0-2.33c4.71.33,7.06.56,11.74,1.17l.27,2.17C493,131.86,491.94,131.76,489.85,131.57Z"/><path d="M509.4,133.73l.51,18.93-1.58.12-.5-19.23-5.17-.59,0-2,11.72,1.56.29,1.8Z"/><path d="M529.58,151.18l-.64-8.13c-3.83,0-5.66,0-9.21-.1l.32,8.93-1.61.12-.65-19,1.59.21.29,8.07c3.55.15,5.37.19,9.15.25l-.57-7.34,1.6.13,1.53,16.77Z"/><path d="M536.5,150.91l-1.75-16.18,1.6.14,1.73,16Z"/><path d="M552.19,152.19A112.14,112.14,0,0,0,543,137.9L544,151.12l-1.35-.09-1.41-15.75,1.5.13a119,119,0,0,1,9.17,13.8l-.12-13,1.5.13,0,16.06Z"/><path d="M564.23,155.61c-5-1.53-7.26-5.57-7.13-10.62s3.12-8.34,7.59-8a7.45,7.45,0,0,1,4.72,2.07c-.12.77-.18,1.16-.3,1.92a7.06,7.06,0,0,0-4.5-2.39c-3.58-.38-5.79,2.27-5.93,6.6s1.69,7.61,5.62,8.75a6.26,6.26,0,0,0,4,0l.07-5.65c-1.66-.38-2.47-.56-4-.9l-.18-1.65c2.31.45,4.47,1,6,1.22v8.52C569.58,156.58,566.39,156.28,564.23,155.61Z"/><path d="M9.24,159.08l-.3,33-1.24.39.23-33.3-4.33.38v-3.38l9.87-.66.14,3.16Z"/><path d="M19.89,189.3c-3.36,1-5.52-5.61-5.32-16.31s2.84-18.36,6.42-18.58,5.77,6.49,5.35,16.42S23.29,188.28,19.89,189.3Zm1-31.88c-2.81.23-4.78,6.42-5,15.21S17.35,187,20,186.27s4.65-6.84,5-15.14S23.69,157.2,20.88,157.43Z"/><path d="M36.92,184.91c-1.39.21-2.08.32-3.47.57l1.71-31.37,3.66-.24c4.47-.29,6.57,5.73,6,14.84C44.14,178.13,41.09,184.29,36.92,184.91Zm1.75-28.26-2.33.17L34.9,182.45l2.26-.34c3.3-.46,5.69-4.84,6.25-13.25S42,156.41,38.67,156.65Z"/><path d="M52.26,184.16c-3.49.08-5.41-6.2-4.76-15.56s3.61-16.08,7.19-16.31,5.53,6.19,4.78,15.7S55.79,184.07,52.26,184.16ZM54.47,155c-2.82.17-5,5.61-5.59,13.37s.88,13.05,3.63,13,5-5.43,5.6-13.29S57.28,154.88,54.47,155Z"/><path d="M66.31,184,69,152l1.34-.08-2.71,32.24Z"/><path d="M80.44,186.07c-1.61-9.76-3.27-19.53-5.18-29.24l-2.41,27.94-1.23-.17,2.83-32.94,1.26-.07c1.87,9.35,3.51,18.76,5.06,28.17l2.46-27.81c.49.1.73.16,1.22.29l-3,34Z"/><path d="M88.12,187.92a5,5,0,0,1-3.27-2.75l.48-3.36c.67,1.49,1.77,2.95,3.08,3.22,1.52.32,2.84-1.61,3.13-5.26a10.54,10.54,0,0,0-2-7.65c-2.2-3.46-2.87-6-2.46-10.73.44-5.05,2.19-7.69,4.24-6.86a5.26,5.26,0,0,1,2.62,2.7l-.44,3.17a5.2,5.2,0,0,0-2.47-3c-1.46-.56-2.45,1.39-2.7,4.28a10.45,10.45,0,0,0,2,7.55,14.93,14.93,0,0,1,2.56,10.59C92.42,185.33,90.4,188.35,88.12,187.92Z"/><path d="M95.44,188.93l2.5-31.85,1.29.31-2.49,31.78Z"/><path d="M104.23,190.57l-3.49-.65,2.5-31.77c1.43.22,2.15.3,3.6.42,4.42.37,6.4,6.81,5.58,16.65C111.59,185.4,108.42,191.35,104.23,190.57Zm2.4-29.12c-.92-.08-1.38-.14-2.3-.26l-2.07,26.11,2.27.41c3.31.58,5.79-3.55,6.53-12.54S109.94,161.76,106.64,161.46Z"/><path d="M114.35,192.33l2.83-33.69,7-.19-.27,3.1-5.66.09-1,11.59c1.77.06,2.66.09,4.44.11l-.07,3.1c-1.85,0-2.77-.08-4.62-.17l-1.11,13.16c2.29.24,3.44.33,5.75.45L121.4,193C118.57,192.84,117.16,192.7,114.35,192.33Z"/><path d="M132.09,193c-1.22.07-1.82.09-3,.12l3.14-34.92,3.12-.09c2.77-.08,3.82,3.35,3.34,8.54-.35,3.72-1.41,6.33-2.74,7.71,1.48,1.08,2.27,3.69,1.83,8.31C137.1,189.33,134.92,192.88,132.09,193Zm2.9-31.86-1.75.05-1.1,12.15,1.7-.06c1.89-.08,3.13-2.8,3.47-6.44S136.91,161.11,135,161.17Zm-1.32,15-1.79.07-1.25,13.82,1.86-.08c2-.11,3.51-2.69,3.91-7C136.84,178.23,135.75,176.1,133.67,176.19Z"/><path d="M144.57,192.65c-3.1.24-4.41-5-3.64-13.1L143,157.9l1.34,0L142.3,179c-.62,6.4.16,10.72,2.59,10.54s4.07-4.28,4.73-10.77l2.16-21.15,1.34,0L151,178.71C150.11,187,147.67,192.41,144.57,192.65Z"/><path d="M161.14,160.38l-3.33,30.71-1.3.1,3.31-30.76-4.36.15.32-3.05,9.9-.3-.14,3Z"/><path d="M176,176.11l-1.65,13.71-1.32.1,1.63-13.69c-1-7.5-1.47-11.27-2.49-18.86l1.4-.71c.87,6.68,1.29,10,2.13,16.62,2.38-6.65,3.57-10,6-16.53l1.46,0C180.32,164.41,178.89,168.29,176,176.11Z"/><path d="M186.32,189.51c-3.52.27-5.07-6.46-3.83-16.46s4.61-17.08,8.2-17.18,5.16,6.62,3.85,16.45S189.88,189.24,186.32,189.51Zm4-30.73c-2.82.09-5.38,5.83-6.42,14.1s.08,13.91,2.86,13.71,5.34-5.94,6.42-14.1S193.12,158.69,190.3,158.79Z"/><path d="M200.36,188.34c-3.1.24-4.26-4.63-3.24-12.09l2.72-20,1.34,0-2.68,19.58c-.81,5.92-.16,9.91,2.28,9.73s4.19-4,5-10l2.78-19.56,1.34,0-2.8,19.52C206.06,183.06,203.46,188.1,200.36,188.34Z"/><path d="M218.77,173.36l-1.65.15-2,13.05-1.31.17,4.68-31.08,3.33-.1c2.71-.08,3.91,2.94,3,8.39C223.91,169.92,221.48,173.12,218.77,173.36Zm2.54-15.09-1.89.07-1.89,12.42,1.71-.14c2-.16,3.58-2.29,4.25-6.53C224.12,160.18,223.35,158.19,221.31,158.27Z"/><path d="M233,183.9l-1.44.79c-.79-5-1.18-7.65-2-12.88l-1.71.15-2.19,13.22-1.31.17,4.93-30,3.43-.11c2.63-.08,3.76,3.09,2.88,8.11-.78,4.48-2.54,7-4.51,8C231.85,176.44,232.23,179,233,183.9Zm-.8-26.06-2,.08-1.91,11.48,1.77-.14c2-.15,3.52-2.12,4.17-5.85C234.83,159.85,234.14,157.77,232.2,157.84Z"/><path d="M235.51,183.91l5-27.52c2.6,1,3.76,1.8,6.3,2.94l-.4,2.13c-2.06-.81-3-1.32-5.11-2.15l-1.67,9.18c1.67.33,2.49.54,4.16.87l-.22,2.22c-1.76-.25-2.62-.42-4.37-.67l-1.9,10.43,5.67-.41-.4,2.12Z"/><path d="M253.52,164l-3.6,18.12-1.29.16,3.66-18.68c-1.62-.54-2.42-.82-4-1.42l.38-2a89.6,89.6,0,0,0,9.14,3.43l-.15,1.67C256,164.79,255.16,164.54,253.52,164Z"/><path d="M256.88,181.27l3.67-16.84c2.65.78,4,1.13,6.68,1.74l-.31,1.3c-2.18-.44-3.27-.68-5.42-1.21l-1.24,5.58,4.32.45-.13,1.34c-1.81-.15-2.72-.2-4.52-.32l-1.41,6.33c2.28-.21,3.43-.29,5.72-.32l-.31,1.29A66.21,66.21,0,0,0,256.88,181.27Z"/><path d="M275.82,181.26c-1.95-4.68-2.93-7-4.83-12.05l-2.87,11.41-1.24,0,3.43-13.76,1.22.24c1.84,5,2.79,7.22,4.68,11.77L279,168.19l1.24.14-3.36,13Z"/><path d="M284.26,182l-3.54-.33,3.37-13.05c1.44.1,2.17.14,3.61.18,4.43.15,6.23,2.8,5.2,6.9A7.84,7.84,0,0,1,284.26,182Zm3.16-12-2.31-.11-2.77,10.74,2.29.2c3.35.29,6-1.4,6.9-5.14S290.74,170.17,287.43,170Z"/><path d="M307,169.49l-3.32,14.28-1.3-.08,3.3-14.12-4.35.23.32-1.33,9.88-.67-.14,1.43Z"/><path d="M319.34,183l1.87-7.68c-3,.26-4.43.42-7.38.62l-1.8,7.76-1.32.07,3.75-16.21,1.34-.09-1.63,7c3-.2,4.43-.35,7.39-.6l1.69-6.94,1.34-.1-3.93,16Z"/><path d="M333.93,181.7c-.12-2-.19-3-.32-5.06l-5.8.53c-1.17,2.11-1.76,3.17-2.93,5.29l-1.34.14c3.68-6.62,5.54-9.91,9.29-16.41l1.38-.1c.47,6.11.69,9.14,1.08,15.14ZM333,168c-1.76,3.08-2.63,4.63-4.37,7.74l4.89-.43C333.34,172.39,333.23,170.93,333,168Z"/><path d="M344.81,166.79l-3.91,14.05-1.3.13,3.89-14.09-4.35.32.38-1.4,9.88-.7-.2,1.36Z"/><path d="M362,178.86c-.06-1.91-.09-2.87-.15-4.79l-5.8.53c-1.24,2-1.86,3-3.09,5l-1.34.14c3.88-6.3,5.85-9.42,9.81-15.6l1.38-.1c.27,5.79.38,8.66.58,14.34Zm-.45-13c-1.85,2.93-2.78,4.4-4.62,7.35l4.89-.43C361.68,170,361.62,168.66,361.5,165.88Z"/><path d="M375.1,177.38c-1.44-4.64-2.16-6.87-3.67-11.58l-4,12.36-1.24.13,4.75-14.72,1.26-.09c1.48,4.57,2.19,6.77,3.58,11.21l4-12,1.23-.27-4.85,14.85Z"/><path d="M385.24,176.62c-3.51.36-4.91-2.66-3.46-7.38s4.76-9,8-10.45,4.79,2.05,3.54,7.67S388.8,176.25,385.24,176.62Zm4.14-16.28c-2.58,1-5.07,4.54-6.26,8.54s-.2,6.55,2.55,6.19,5.28-3.72,6.32-8.33S392,159.29,389.39,160.33Z"/><path d="M401.86,158.25l-3.63,17-1.3-.06,3.64-16.91a25.64,25.64,0,0,0-4.24.43l.36-1.66a26.06,26.06,0,0,1,9.64-.16l-.17,1.69A28.77,28.77,0,0,0,401.86,158.25Z"/><path d="M413.91,176l1.84-7.94-7.31-1-1.87,8.57-1.32-.06,3.92-18.15,1.31.3-1.69,7.74,7.3,1.1,1.66-7.17,1.31.3L415.23,176Z"/><path d="M419.14,176.22,423,160.4a54.55,54.55,0,0,0,7,.66l-.35,1.39c-2.26-.1-3.39-.18-5.64-.45l-1.31,5.37c1.77.17,2.66.23,4.44.32l-.16,1.4c-1.85-.09-2.78-.15-4.63-.31l-1.49,6.09c2.31.12,3.47.18,5.78.28l-.35,1.39Z"/><path d="M437.91,176.88l-1.43.28c-1-2.87-1.48-4.31-2.49-7.18l-1.72-.08-1.75,6.83-1.32-.06,3.94-15.46,3.43.16c2.63.12,3.9,1.72,3.2,4.4a5.3,5.3,0,0,1-4.27,4.07C436.47,172.65,436.95,174.06,437.91,176.88Zm-1.76-14.15-2-.09-1.52,5.94,1.78.08a3.66,3.66,0,0,0,4-2.86C438.87,163.92,438.1,162.82,436.15,162.73Z"/><path d="M458.2,178l-1.15-.05c0-5.39,0-8.09-.11-13.48-3,5.25-4.55,7.88-7.54,13.14l-1.11,0c.09-6.18.12-9.27.17-15.45l1.42-.27c-.1,5.35-.16,8-.29,13.36,2.9-5.16,4.36-7.73,7.3-12.88l1.38.06c0,5.28,0,7.93,0,13.21,2.79-5.16,4.2-7.73,7-12.89l1.34.06C463.24,168.84,461.55,171.88,458.2,178Z"/><path d="M473.22,179.8c0-2.45-.08-3.65-.13-6-2.31-.18-3.46-.29-5.78-.43-1.24,2-1.85,3-3.08,5l-1.34-.12c3.88-6,5.83-9.12,9.78-15.9l1.38-.11c.27,6.49.37,10,.54,17.4Zm-.43-15.59c-1.85,3.21-2.77,4.76-4.6,7.77,1.95.09,2.92.16,4.87.27C473,168.93,472.91,167.32,472.8,164.21Z"/><path d="M482.47,172.69l-2,8-1.31-.2,2-7.86c-.76-4.47-1.15-6.58-2-10.56l1.42-.47c.68,3.56,1,5.44,1.66,9.37,2.55-3.75,3.83-5.71,6.42-9.81l1.46-.11C487,166,485.51,168.29,482.47,172.69Z"/><path d="M492.7,182.54l5.17-22.07,1.34-.1L494,182.74Z"/><path d="M500.85,184.05a4.67,4.67,0,0,1-3.14-2l.73-2.33a4.29,4.29,0,0,0,2.95,2.19c1.54.2,3.06-1.28,3.68-4.06a5,5,0,0,0-1.5-5.39c-2.08-2.12-2.67-3.57-1.92-6.87.8-3.5,3-5.94,5.17-6.12a2.87,2.87,0,0,1,2.67,1.05l-.74,2.48a2.6,2.6,0,0,0-2.47-1.4c-1.57.09-2.81,1.78-3.28,3.82s-.08,3.15,1.59,4.82c2,2,2.62,3.9,1.82,7.54C505.48,182.08,503.15,184.41,500.85,184.05Z"/><path d="M515.81,186l-3-.45,5.65-26.67,3.11-.24c2.76-.21,3.56,2.51,2.69,6.74-.62,3-1.86,5.12-3.29,6.13,1.38,1,2,3.2,1.19,7C521,184,518.61,186.44,515.81,186ZM521,161l-1.75.1-2,9.38,1.69,0c1.88,0,3.31-2.09,3.91-5S522.93,160.92,521,161Zm-2.41,11.78-1.78-.07-2.25,10.67,1.84.24c2,.26,3.66-1.57,4.39-5.08C521.59,174.74,520.68,172.89,518.6,172.81Z"/><path d="M523.54,187.18l5.9-29.09c2.79-.14,4.18-.18,7-.19l-.54,2.72c-2.25,0-3.38,0-5.63,0l-2,10,4.42.2-.35,2.71-4.6-.27-2.3,11.4c2.29.31,3.43.45,5.73.69l-.54,2.72C527.75,187.83,526.35,187.61,523.54,187.18Z"/><path d="M543.58,160.85l-5.59,28-1.3-.09,5.58-27.94c-1.73-.08-2.6-.11-4.33-.14l.55-2.74c3.93,0,5.9.14,9.81.45l-.36,2.77C546.2,161,545.32,160.94,543.58,160.85Z"/><path d="M555.14,161.85l-5.65,27.23-1.3,0,5.65-27.4c-1.72-.19-2.58-.28-4.3-.43l.56-2.74c3.91.37,5.86.62,9.74,1.25l-.37,2.65C557.73,162.17,556.87,162.05,555.14,161.85Z"/><path d="M556.48,188.79l6.2-28.53c2.74.5,4.1.79,6.81,1.44l-.55,2.44c-2.2-.48-3.3-.7-5.51-1.09l-2.12,9.65c1.75.21,2.63.32,4.38.56l-.36,2.48c-1.83-.22-2.74-.32-4.57-.5l-2.4,11,5.77.2-.55,2.43C560.74,188.77,559.31,188.61,556.48,188.79Z"/><path d="M575.27,188.77l-1.47.5c-.66-4.46-1-6.8-1.6-11.67l-1.69-.22-2.66,11.53-1.32,0,6-26.41c1.32.34,2,.53,3.29.9,2.52.72,3.53,3.65,2.52,7.9-.9,3.78-2.72,5.71-4.68,6.19C574.3,182.18,574.61,184.45,575.27,188.77Zm0-23.15-1.95-.5-2.31,10,1.74.27c1.93.3,3.52-1.14,4.27-4.3S577.15,166.11,575.28,165.62Z"/><path d="M12.13,226.06l-4,.93V200l4-1.26c3.53-1.12,5.32,1.1,5.35,5.24a9,9,0,0,1-2.59,6.8c2.07.35,3.44,2.12,3.47,5.82C18.34,221.92,15.9,225.19,12.13,226.06ZM12,201.14l-2.24.69v9.43l2.21-.62c2.46-.69,3.73-3.16,3.71-6S14.49,200.38,12,201.14Zm.11,11.73-2.34.64,0,10.73,2.46-.59c2.66-.63,4.33-3,4.3-6.44C16.56,213.44,14.86,212.13,12.14,212.87Z"/><path d="M28.79,222.67c-4.12.94-6.61-2.89-6.68-9.45l-.19-17.59,1.71-.53.22,17.3c.07,5.24,1.71,8.46,4.93,7.71s4.79-4.46,4.7-9.88l-.31-17.64,1.74-.37.32,17.62C35.35,216.74,32.91,221.73,28.79,222.67Z"/><path d="M45.84,193l.47,25.3-1.73.36-.47-25.43c-2.29.32-3.43.5-5.71.92l0-2.55a104.17,104.17,0,0,1,13-1.62l.3,2.44C49.32,192.56,48.15,192.67,45.84,193Z"/><path d="M74.94,216.28c-1-3.41-1.53-5.14-2.55-8.61-3.14-.1-4.71-.16-7.84-.11-.81,3.43-1.21,5.15-2,8.64l-1.82.12c2.6-10.94,3.9-16.26,6.45-26.64l1.83.12c3,10.57,4.57,15.83,7.68,25.94Zm-6.82-23.49c-1.18,4.91-1.77,7.4-3,12.43,2.63,0,4,0,6.59.14C70.28,200.37,69.56,197.85,68.12,192.79Z"/><path d="M80.62,216l-.81-24.85,1.76.29.77,22.36,6.93.13.35,2.1Z"/><path d="M93.3,216.07l-1-22.65,1.77.32,1,20.33c2.77.05,4.16,0,6.92.15l.37,1.91C98.7,216,96.9,216.09,93.3,216.07Z"/><path d="M124.75,220.21c-1-3.11-1.54-4.62-2.59-7.59-3-.71-4.58-1.05-7.67-1.63-.71,2.44-1.06,3.66-1.77,6.13l-1.8-.27c2.29-7.75,3.41-11.4,5.71-19.05l1.83.29c3.25,8.5,4.83,12.95,7.93,22.16C125.73,220.26,125.4,220.24,124.75,220.21Zm-7.09-19.89c-1.06,3.65-1.58,5.42-2.63,9,2.59.5,3.89.77,6.46,1.33C120,206.44,119.2,204.4,117.65,200.31Z"/><path d="M130.28,220.93l-.92-21.74,1.79,0,.84,19.67c2.77-.16,4.15-.24,6.92-.42l.34,1.9C135.67,220.61,133.86,220.88,130.28,220.93Z"/><path d="M149,220.15c-4.79.31-8.27-4-8.56-10.53s2.84-11.37,7.63-11.74,8.29,3.94,8.58,10.53S153.89,219.84,149,220.15Zm-.87-20.34c-3.77.29-6.08,4.19-5.84,9.61s2.9,9,6.68,8.79,6.08-4.15,5.84-9.62S151.94,199.53,148.17,199.81Z"/><path d="M173.87,218.15c-4.53-7.06-6.79-10.56-11.31-17.54l.81,18.21-1.69.11-1-21.61,1.69-.13c4.38,6.75,6.58,10.14,11,17l-.8-17.75,1.69-.13,1,21.77Z"/><path d="M188.2,217.64c-5.31.34-8.65-4.08-8.95-10.75s2.74-11.61,7.76-12a7.51,7.51,0,0,1,5.39,1.5l-.21,2.29a6.8,6.8,0,0,0-5.12-1.82c-4,.3-6.23,4.22-6,9.86s2.82,9.19,7,8.91a6.56,6.56,0,0,0,4.05-1.64l-.3-6.59-4.32.3-.35-2,6.35-.45L194,215A9.43,9.43,0,0,1,188.2,217.64Z"/><path d="M211.76,206.43l.43,9.24-1.8.12-.43-9.2c-2.78-4.93-4.16-7.39-6.94-12.29l1.75-.58c2.41,4.32,3.62,6.49,6,10.84,1.94-4.57,2.91-6.86,4.84-11.45l2-.15C215.27,198.37,214.1,201.06,211.76,206.43Z"/><path d="M228.54,215c-4.79.31-8.3-4.22-8.62-11.06s2.76-12.08,7.52-12.71,8.29,3.9,8.64,11.06S233.38,214.73,228.54,215Zm-1-21.72c-3.75.47-6,4.7-5.76,10.41s3,9.51,6.73,9.25,6-4.49,5.76-10.41S231.27,192.85,227.52,193.33Z"/><path d="M247.62,213.75c-4.22.27-6.9-3.28-7.18-8.81l-.74-14.84,1.78-.23.74,14.6c.22,4.42,2,7.34,5.32,7.11s4.82-3.22,4.58-7.86l-.78-15.14,1.78-.23.79,15.21C254.22,209.5,251.84,213.47,247.62,213.75Z"/><path d="M271.06,210.8c-.69.4-1,.59-1.74,1-2.52-4-3.81-6.24-6.38-10.57l-2.31.22.59,11.06-1.8.12-1.31-24.9,4.55-.6c3.49-.46,5.85,1.81,6.08,6.16.2,3.87-1.45,6.37-3.87,7.4C267.37,204.86,268.63,207,271.06,210.8Zm-8.36-21.47-2.69.34.51,9.61,2.39-.24c2.65-.26,4.2-2.21,4-5.42S265.28,189,262.7,189.33Z"/><path d="M292.07,211.71l-.31-11.42a63.65,63.65,0,0,0-9.76-1.58l.47,10.84c-.71,0-1.06-.05-1.76-.06l-1-22.77,1.79.16.42,9.79a76.48,76.48,0,0,1,9.79,1.47l-.28-10.31,1.79.17.57,24.21C293.09,212,292.75,211.93,292.07,211.71Z"/><path d="M298.93,213.44l-.42-24.92c3.74.35,5.61.55,9.35.87l0,2.25c-3-.24-4.53-.4-7.55-.7l.13,8.57c2.37.29,3.56.41,5.95.6l.29,2.28c-2.49-.18-3.73-.31-6.2-.62l.15,9.74a54.34,54.34,0,0,0,7.76.73l0,2.25A49.92,49.92,0,0,1,298.93,213.44Z"/><path d="M325.29,214l-2.43-8.13c-3.14.22-4.72.33-7.86.46-.84,3.23-1.27,4.85-2.11,8.1-.73,0-1.09,0-1.82.06,2.69-10.07,4.05-15,6.75-25.12l1.85-.13c2.94,9.57,4.41,14.36,7.37,24.13Zm-6.55-21.8c-1.25,4.79-1.87,7.16-3.12,11.92,2.65-.11,4-.21,6.61-.4Z"/><path d="M342.73,212.5l-1.81.66c-2.41-4.5-3.61-6.72-6-11.13l-2.31.17.17,11.15-1.8.1-.38-25.14,4.57-.46c3.5-.35,5.78,1.95,5.85,6.4.06,4-1.69,6.37-4.15,7.3C339.2,205.88,340.38,208.07,342.73,212.5Zm-7.62-22.4-2.7.26.15,9.69,2.39-.19c2.65-.21,4.29-2,4.24-5.3S337.71,189.85,335.11,190.1Z"/><path d="M351.49,188.56l.42,23.73-1.77.1-.41-23.66-5.82.56,0-2.31,13.18-1.32.3,2.34Z"/><path d="M378.88,211.06c-3.81-5.53-5.71-8.26-9.5-13.62l.27,13.86-1.8.1-.52-26.78,1.79-.18.24,12.22c3.26-5.16,4.89-7.77,8.14-13.06l2.23-.22c-3.34,5.43-5,8.11-8.37,13.4,3.76,5.33,5.65,8,9.43,13.54Z"/><path d="M396.35,209.82c-4.41-9.21-6.61-13.74-11-22.64l.5,23.22-1.69.09-.59-27.5,1.69-.17c4.25,8.59,6.39,13,10.66,21.85l-.52-22.87,1.69-.17.64,28.1Z"/><path d="M410.32,209.58c-4.79.26-8.22-5.55-8.42-14.2s3-14.8,7.78-14.59,8.24,6.06,8.45,14.31S415.17,209.32,410.32,209.58Zm-.6-26.3c-3.78-.13-6.14,4.71-6,11.89s2.79,12.08,6.56,11.91,6.14-5,6-11.9S413.5,183.42,409.72,183.28Z"/><path d="M440,206.66l-1.55.22c-2.27-8.12-3.41-12.35-5.72-21.11-1.85,8.7-2.77,13.25-4.61,22.38l-1.51.09c-2.42-10.26-3.63-15.49-6-26.15l1.76-.5c2,9.17,3,13.69,5,22.56,1.76-8.92,2.63-13.36,4.39-21.89l1.85.08c2.21,8.58,3.31,12.72,5.5,20.7,1.56-8.39,2.35-12.46,3.93-20.31l1.8.07C442.92,191.94,442,196.72,440,206.66Z"/><path d="M453.08,205.06a7.59,7.59,0,0,1-4.76-.74l.21-2.32a6.78,6.78,0,0,0,4.59,1.13,4,4,0,0,0,3.59-4.24c0-2.07-.95-3-3.7-4.32-3.46-1.63-4.74-3.08-4.82-6.28-.08-3.39,2.06-5.55,5-5.43a7.43,7.43,0,0,1,4,1.26l-.22,2.08a6.39,6.39,0,0,0-3.8-1.44,3,3,0,0,0-3.2,3.39c0,2,.93,3,3.71,4.37,3.35,1.63,4.74,3,4.8,6A6.18,6.18,0,0,1,453.08,205.06Z"/><path d="M469.43,202.53l-.33-18.75c.72,0,1.08.07,1.79.14l.32,18.36Z"/><path d="M482.45,186.89l.31,13.84-1.76.21-.3-14.27-5.78-.71,0-1.56,13.1,1.95.29,1.28Z"/><path d="M498.84,199.94l-.46-12,1.78.27.48,11.77Z"/><path d="M510.11,200.62a16.18,16.18,0,0,1-4.8-1l.21-1.12a13.88,13.88,0,0,0,4.61,1.2c2.11.16,3.65-.42,3.59-1.61-.06-1-1-1.64-3.73-2.66-3.47-1.29-4.74-2.17-4.82-3.77s2-2.49,5-2a14.08,14.08,0,0,1,4,1.15l-.2,1a11.77,11.77,0,0,0-3.78-1.22c-2.09-.31-3.21.3-3.17,1.26s.93,1.62,3.71,2.67c3.35,1.27,4.75,2.15,4.84,3.68C515.62,199.93,513.26,200.84,510.11,200.62Z"/><path d="M538.57,202.54c-4.47-3.23-6.7-4.95-11.11-8.71l.62,8-1.69-.12-.72-9.59,1.68.26c4.27,3.7,6.42,5.41,10.76,8.58l-.67-7.11,1.68.19.83,8.65Z"/><path d="M552.54,203.69c-4.77-.37-8.25-2.38-8.51-5s2.88-4.15,7.66-4.05,8.25,2,8.49,5S557.36,204.06,552.54,203.69Zm-.8-8.26c-3.77-.09-6.09,1.21-5.87,3.38s2.88,3.83,6.64,4.11,6-.94,5.84-3.35S555.51,195.52,551.74,195.42Z"/><path d="M569.26,195.35l.38,11.71-1.67-.55-.46-11.1c-2.32.09-3.48.14-5.8.2l-.07-.93c5.28-.24,7.92-.51,13.19-.87.1.54.17.82.26,1.37C573,195.33,571.6,195.27,569.26,195.35Z"/></g>
<g id="paths"><path class="cls-1" d="M6.09,10.5l26-9.3a12,12,0,0,1,4-.7H63A16,16,0,0,1,67.13,1l19.4,5.22A35.72,35.72,0,0,0,95.82,7.5h43.64q.64,0,1.28,0l60.89-4.61a49.92,49.92,0,0,1,8.93.12l83.4,9.1a117,117,0,0,0,26.26-.1l25.33-3a218.29,218.29,0,0,1,43.15-.74l97.65,8a187.3,187.3,0,0,0,29.47.09l51.26-3.88"/><path class="cls-1" d="M565.09,41.5l-70.51-6.76q-2.49-.24-5-.29l-39.16-.82a119.76,119.76,0,0,0-12.65.41l-65.46,5.57A203.17,203.17,0,0,1,328,38.52L309.35,36a204.1,204.1,0,0,1-22.27-4.27l-24-6A136.8,136.8,0,0,0,220.5,22l-7.41.51-39,4H121.88a82,82,0,0,1-13.48-1.12L82.32,21a39.51,39.51,0,0,0-6.5-.54H46.15a75,75,0,0,0-32.43,7.38L4.09,32.5"/><path class="cls-1" d="M561.09,61.5,499.1,57a117.82,117.82,0,0,0-14-.18l-57,2.67-93.73,4.3a216.74,216.74,0,0,1-30.48-.75L235.09,56.5l-34.51-3.59a106.19,106.19,0,0,0-26.91.63l-5.41.82A88.14,88.14,0,0,1,140,54l-27-4.7a44.7,44.7,0,0,0-9.72-.61L47.31,51.31a61.17,61.17,0,0,0-8.37,1L.09,59.5"/><path class="cls-1" d="M567.09,86.5,508.52,83q-8.42-.5-16.86-.25l-34.19,1a214.69,214.69,0,0,0-49.88,7.39l-3.71,1a239.46,239.46,0,0,1-62.68,8.35h0a245.16,245.16,0,0,1-43.86-4L243,86.67A204.47,204.47,0,0,0,219,83.76l-84.2-5.15q-1.67-.1-3.35-.1H74.47a153.17,153.17,0,0,0-40,5.33L6.09,91.5"/><path class="cls-1" d="M570.09,134.5l-46-4-28.73-3.94a191.8,191.8,0,0,0-44.64-.88L416.45,129a252.9,252.9,0,0,1-30.79,1.11l-64.57-1.61-99.52-2.45A263.51,263.51,0,0,1,177,121.15l-29.88-5.9A144.24,144.24,0,0,0,98.82,114l-9.68,1.38q-8,1.15-16.16,1.57L3.09,120.5"/><path class="cls-1" d="M584.09,161.5a139.67,139.67,0,0,0-55.37-6.72l-58.63,4.72-38.59-1.75a59.58,59.58,0,0,1-10.69-1.46L411,154a31.26,31.26,0,0,0-21,2.5h0A33.33,33.33,0,0,1,377.46,160L300,165.4a107.11,107.11,0,0,1-56.62-11.67h0a18.85,18.85,0,0,0-9.19-2.09l-121.34,3.49A53.64,53.64,0,0,1,88.51,150h0a23.33,23.33,0,0,0-11.39-2.18l-74,4.63"/><path class="cls-1" d="M559.31,192.25A141.2,141.2,0,0,1,527,191l-58.68-9a60.35,60.35,0,0,0-6.52-.64l-64.72-2.86-82.26,8.32a69.75,69.75,0,0,1-13.48.05l-30-2.79a55.9,55.9,0,0,0-12.5.24l-46.76,6.18-78.64,6a94.36,94.36,0,0,1-24.55-1.32l-32.1-6A124.28,124.28,0,0,0,16.32,193L2.09,197.5"/><path class="cls-1" d="M570.09,213.5A67.1,67.1,0,0,0,547,207.65l-45-3.17a131.18,131.18,0,0,0-27.77,1L428,212.08q-2.93.42-5.89.58l-113.85,6.23A58.84,58.84,0,0,1,286.46,216l-1.72-.57a28.45,28.45,0,0,0-17.36-.2h0a38.1,38.1,0,0,1-8.76,1.61l-132.55,8.52a15.27,15.27,0,0,1-5.81-.75h0a79,79,0,0,0-25-4.06h-31a116.09,116.09,0,0,0-25.93,2.93L3.09,231.5"/></g></g></g></svg>
